<svg width="178" height="178" viewBox="0 0 178 178" fill="none" xmlns="http://www.w3.org/2000/svg">
<rect width="178" height="178" fill="white"/>
<path fill-rule="evenodd" clip-rule="evenodd" d="M23 89.0002L44.8434 67.1564C45.3078 70.5551 46.5368 73.718 48.3501 76.4655L35.8158 89.0002L42.8746 96.059C41.0337 98.7 39.6732 101.698 38.9248 104.925L23 89.0002ZM70.4259 41.5739L88.9998 23L107.574 41.5739H94.758L88.9998 35.8158L83.2416 41.5739H70.4259ZM133.157 67.1569L155 89.0002L139.075 104.925C138.327 101.698 136.967 98.6996 135.125 96.0586L142.184 89.0002L129.65 76.4659C131.463 73.7184 132.692 70.5555 133.157 67.1569ZM107.574 136.426L88.9998 155L70.4263 136.426H83.242L88.9998 142.184L94.7576 136.426H107.574Z" fill="#022038"/>
<path fill-rule="evenodd" clip-rule="evenodd" d="M87.5775 134.299V87.1141H63.9848C51.0087 87.1141 40.3926 97.7306 40.3926 110.707C40.3926 123.683 51.0087 134.299 63.9853 134.299H87.5775Z" fill="#022038"/>
<path fill-rule="evenodd" clip-rule="evenodd" d="M90.4224 134.299V87.1141H114.015C126.991 87.1141 137.608 97.7306 137.608 110.707C137.608 123.683 126.991 134.299 114.015 134.299H90.4224Z" fill="#022038"/>
<path fill-rule="evenodd" clip-rule="evenodd" d="M90.4224 84.5156V43.701H110.83C122.054 43.701 131.237 52.8841 131.237 64.1085C131.237 75.3325 122.054 84.5156 110.83 84.5156H90.4224Z" fill="#022038"/>
<path fill-rule="evenodd" clip-rule="evenodd" d="M46.7632 43.701H87.5777V64.1085C87.5777 75.3325 78.3946 84.5156 67.1706 84.5156C55.9463 84.5156 46.7632 75.3325 46.7632 64.1085V43.701Z" fill="#022038"/>
<path fill-rule="evenodd" clip-rule="evenodd" d="M101.642 105.932C101.465 106.016 102.287 106.843 103.431 106.718C103.121 105.968 102.877 104.672 103.56 103.707C102.449 102.443 102.563 100.085 102.618 99.3989C102.68 98.6142 103.057 98.5591 103.202 97.4135C103.346 96.2684 102.224 95.4703 102.224 95.4703C102.224 95.4703 102.254 96.7571 102.044 97.1013C102.044 97.1013 101.206 96.9811 101.087 96.5024C101.087 96.5024 101.281 99.0163 101.012 99.2856C101.012 99.2856 100.293 99.6302 99.8892 99.0317C99.8892 99.0317 99.7847 100.244 100.278 100.737C100.278 100.737 100.024 101.516 99.5155 101.246C99.5155 101.246 99.8293 102.233 100.578 102.293C100.578 102.293 100.686 102.911 100.007 102.855C100.007 102.855 100.12 103.816 100.98 103.873C100.98 103.873 101.331 104.427 100.765 104.518C100.765 104.518 101.071 105.31 101.999 105.253C101.999 105.253 101.828 105.843 101.642 105.932ZM116.536 112.907C116.536 112.907 118.396 112.205 118.03 110.84C117.665 109.475 115.882 108.119 115.882 105.213C115.882 102.307 119.011 98.3396 122.633 98.1756C122.633 98.1756 123.615 98.1752 123.328 98.728C123.042 99.2803 121.241 99.9148 121.733 99.9764C122.223 100.038 123.635 99.7719 123.288 100.242C122.94 100.713 121.733 101.859 119.809 100.59C119.809 100.59 116.78 102.227 116.78 105.235C116.78 108.244 118.908 109.287 118.908 111.149C118.908 113.012 116.637 114.137 116.637 114.137C116.637 114.137 117.596 119.255 121.528 119.237C121.528 119.237 119.927 122.155 121.813 123.561C121.813 123.561 121.209 123.845 121.048 123.764C121.048 123.764 121.344 124.814 121.64 125.137L120.953 124.854C120.953 124.854 120.927 125.595 121.196 126.038L120.456 125.716C120.456 125.716 120.428 127.667 120.819 128.165C120.819 128.165 120.012 128.232 119.81 127.653C119.81 127.653 118.639 129.631 116.836 129.954L116.769 129.08L115.558 128.999C115.558 128.999 118.281 125.987 118.281 123.573C118.281 121.159 115.377 119.322 114.345 119.13C113.313 118.937 112.543 116.313 112.351 115.281C112.159 114.249 110.112 112.167 108.555 111.8C106.998 111.433 106.52 111.017 106.825 110.686C107.129 110.356 107.83 109.72 107.87 108.821C107.909 107.921 108.862 107.366 108.862 107.366C108.862 107.366 107.922 107.405 107.314 108.702C106.705 109.998 106.005 110.779 105.396 110.739C104.787 110.699 105.021 110.408 105.021 110.408C105.021 110.408 104.392 111.32 103.985 111.399C103.985 111.399 104.145 110.824 104.074 110.426C104.074 110.426 102.746 111.443 102.516 111.532C102.516 111.532 102.578 111.046 102.481 110.762C102.481 110.762 101.525 111.815 101.065 111.851C101.065 111.851 101.224 111.39 101.153 111.036C101.153 111.036 100.18 111.656 99.3215 111.638C99.3215 111.638 99.8524 110.851 99.6402 110.258C99.6402 110.258 98.2727 111.244 96.6202 110.226C96.6202 110.226 97.5349 109.621 97.771 109.03C97.771 109.03 96.0594 108.942 95.7642 108.529C95.7642 108.529 98.0221 106.921 99.4535 108.012C100.885 109.104 101.49 109.414 102.405 108.514C103.32 107.614 103.976 107.878 103.607 107.073C103.238 106.267 102.893 104.644 103.963 103.618C103.963 103.618 103.949 105.686 104.455 106.277C104.455 106.277 104.329 103.041 105.356 102.66C105.356 102.66 105.244 104.025 105.511 104.49C105.511 104.49 105.955 101.835 107.501 101.835C109.047 101.835 109.937 101.028 109.525 100.588C109.114 100.147 108.252 100.089 108.501 99.7253C108.75 99.3617 109.602 99.9363 109.88 99.7448C110.158 99.5532 110.11 98.9211 108.932 99.0551C107.754 99.1892 106.078 99.4577 106.059 97.6282C106.039 95.7991 106.729 96.9005 106.901 97.3411C107.074 97.7816 107.505 98.6433 108.817 98.6433C110.129 98.6433 110.349 99.2082 110.349 99.2082C110.349 99.2082 110.847 98.1647 109.593 98.174C108.338 98.1837 108.314 97.7837 108.303 96.9726C108.291 96.1615 108.893 95.8141 109.542 95.791C110.192 95.7679 109.961 96.3834 110.285 96.5061C110.609 96.6288 110.46 96.9791 110.635 96.9264C110.811 96.8738 110.592 96.5932 110.995 96.611C111.398 96.6288 111.853 96.2692 111.389 96.1902C110.924 96.1117 110.408 96.2081 110.39 95.8137C110.373 95.4193 111.608 95.2702 112.432 95.9801C113.255 96.6899 113.171 96.9155 113.377 96.7859C113.583 96.6559 114.079 95.9704 114.17 96.5417C114.261 97.1135 114.128 97.1382 114.226 97.6853C114.324 98.2319 114.977 100.21 114.466 101.895C113.954 103.58 113.204 103.694 113.139 104.968C113.075 106.242 113.51 106.5 113.317 107.355C113.124 108.209 112.327 109.496 111.71 109.721C111.71 109.721 112.454 109.908 112.688 109.442C112.688 109.442 113.865 110.608 114.215 110.756C114.564 110.905 115.593 111.403 116.536 112.907ZM112.123 106.642C112.123 106.642 111.384 107.49 111.295 108.388C111.205 109.285 110.915 110.303 109.568 110.383C109.568 110.383 110.666 110.084 110.885 108.388C111.105 106.691 112.123 106.642 112.123 106.642ZM110.622 106.642C110.622 106.642 109.884 107.49 109.794 108.388C109.704 109.285 109.415 110.303 108.068 110.383C108.068 110.383 109.165 110.084 109.385 108.388C109.604 106.691 110.622 106.642 110.622 106.642ZM109.116 114.109C108.812 114.844 107.583 120.719 104.566 120.639C101.549 120.559 100.303 118.675 100.303 118.675C100.303 118.675 99.9528 119.857 100.495 120.399C100.495 120.399 99.5693 120.735 98.9785 120.671C98.9785 120.671 100.463 122.538 101.82 122.203C101.82 122.203 102.376 122.745 101.808 123.264C101.808 123.264 102.931 123.734 103.788 122.974C103.788 122.974 104.404 123.397 104.162 123.94C104.162 123.94 105.538 123.747 105.937 122.624C105.937 122.624 106.601 122.95 106.505 123.373C106.505 123.373 106.951 122.66 106.999 122.093C106.999 122.093 107.736 122.238 107.736 122.696C107.736 122.696 109.069 118.941 113.196 118.474C112.629 117.565 112.23 116.124 112.099 115.421C112.005 114.917 111.469 114.163 110.764 113.481C110.146 113.519 109.303 113.656 109.116 114.109Z" fill="white"/>
<path fill-rule="evenodd" clip-rule="evenodd" d="M109.581 55.5101L109.016 54.5314L108.451 53.5527H109.581H110.711L110.146 54.5314L109.581 55.5101ZM109.109 55.9665L108.13 56.5318L107.151 57.0967V55.9665V54.8367L108.13 55.4016L109.109 55.9665ZM110.037 55.9819L111.016 55.417L111.995 54.8521V55.9819V57.112L111.016 56.5471L110.037 55.9819ZM109.573 59.3866C110.332 59.3866 110.947 58.7714 110.947 58.0126C110.947 57.2534 110.332 56.6383 109.573 56.6383C108.814 56.6383 108.199 57.2534 108.199 58.0126C108.199 58.7714 108.814 59.3866 109.573 59.3866ZM108.692 68.8357L105.799 68.8284C105.799 68.8284 106.412 67.6225 105.055 67.2589C103.696 66.8948 103.331 64.8511 103.331 64.3097C103.331 63.7683 103.264 61.2942 105.451 61.2942C107.638 61.2942 108.686 63.6465 108.92 64.5199C109.154 65.3933 108.831 66.2093 108.831 66.2093C108.831 66.2093 107.774 66.3571 107.774 67.2658C107.774 68.1744 108.978 68.1068 108.978 68.1068V68.4065C108.73 68.4065 108.692 68.8357 108.692 68.8357ZM110.454 68.8357L113.347 68.8284C113.347 68.8284 112.734 67.6225 114.092 67.2589C115.45 66.8948 115.816 64.8511 115.816 64.3097C115.816 63.7683 115.882 61.2942 113.695 61.2942C111.508 61.2942 110.46 63.6465 110.226 64.5199C109.992 65.3933 110.315 66.2093 110.315 66.2093C110.315 66.2093 111.371 66.3571 111.371 67.2658C111.371 68.1744 110.168 68.1068 110.168 68.1068V68.4065C110.416 68.4065 110.454 68.8357 110.454 68.8357ZM121.012 64.347C121.012 67.9724 117.446 69.9675 117.446 69.9675C117.446 69.9675 117.254 72.3197 116.842 73.0336H109.573H102.304C101.892 72.3197 101.7 69.9675 101.7 69.9675C101.7 69.9675 98.1338 67.9724 98.1338 64.347C98.1338 60.7216 102.049 61.8575 102.049 61.8575C102.049 61.8575 102.412 59.2711 105.263 59.2711C107.352 59.2711 108.896 61.5125 109.573 62.7135C110.25 61.5125 111.794 59.2711 113.882 59.2711C116.734 59.2711 117.097 61.8575 117.097 61.8575C117.097 61.8575 121.012 60.7216 121.012 64.347ZM116.036 71.9768C116.159 72.027 116.3 71.9678 116.35 71.8443C116.4 71.7212 116.341 71.5803 116.218 71.5301C113.983 70.5729 105.163 70.5729 102.928 71.5301C102.805 71.5803 102.746 71.7212 102.796 71.8443C102.846 71.9678 102.987 72.027 103.11 71.9768C105.409 71.0576 113.738 71.0576 116.036 71.9768ZM116.006 67.0285C116.006 67.0285 117.096 68.2708 115.677 68.941C117.595 69.401 119.514 67.2334 119.514 65.3018C119.514 63.3703 117.252 63.461 117.252 63.461C117.252 63.461 117.564 66.1291 116.006 67.0285ZM103.14 67.0285C103.14 67.0285 102.05 68.2708 103.469 68.941C101.551 69.401 99.6325 67.2334 99.6325 65.3018C99.6325 63.3703 101.894 63.461 101.894 63.461C101.894 63.461 101.582 66.1291 103.14 67.0285Z" fill="white"/>
</svg>
