<svg width="80" height="80" viewBox="0 0 80 80" fill="none" xmlns="http://www.w3.org/2000/svg">
<path fill-rule="evenodd" clip-rule="evenodd" d="M0 40.0001L13.2384 26.7615C13.5199 28.8212 14.2647 30.7382 15.3637 32.4033L7.76712 40.0001L12.0452 44.2782C10.9295 45.8788 10.1049 47.6958 9.65142 49.6515L0 40.0001ZM28.743 11.2569L39.9999 0L51.2568 11.2569H43.4897L39.9999 7.76713L36.5101 11.2569H28.743ZM66.7616 26.7617L80 40.0001L70.3486 49.6513C69.8951 47.6956 69.0707 45.8785 67.9548 44.2779L72.2329 40.0001L64.6363 32.4036C65.7353 30.7384 66.4801 28.8215 66.7616 26.7617ZM51.2568 68.7431L39.9999 80L28.7432 68.7431H36.5103L39.9999 72.2329L43.4894 68.7431H51.2568Z" fill="white"/>
<path d="M24.8398 39.2554H38.7393V67.0552H24.8398C17.1956 67.0552 10.9396 60.7997 10.9395 53.1558C10.9395 45.5117 17.1958 39.2554 24.8398 39.2554Z" stroke="white" stroke-width="0.797667"/>
<path d="M55.1616 39.2554C62.8056 39.2555 69.061 45.5118 69.061 53.1558C69.0609 60.7996 62.8055 67.055 55.1616 67.0552H41.2612V39.2554H55.1616Z" stroke="white" stroke-width="0.797667"/>
<path d="M53.231 12.9446C59.8131 12.9446 65.1997 18.3319 65.1997 24.9143C65.1997 31.4964 59.8131 36.8831 53.231 36.8831H41.2612V12.9446H53.231Z" stroke="white" stroke-width="0.797667"/>
<path d="M38.7393 12.9446V24.9143C38.7393 31.4964 33.3526 36.8831 26.7705 36.8831C20.1881 36.8831 14.8008 31.4964 14.8008 24.9143V12.9446H38.7393Z" stroke="white" stroke-width="0.797667"/>
<path fill-rule="evenodd" clip-rule="evenodd" d="M47.6618 50.2617C47.5546 50.3125 48.053 50.8141 48.746 50.7383C48.5583 50.2835 48.4106 49.4984 48.8243 48.9136C48.1509 48.1472 48.2199 46.7184 48.2533 46.3024C48.2913 45.8268 48.5195 45.7934 48.6071 45.0991C48.6947 44.4051 48.0145 43.9214 48.0145 43.9214C48.0145 43.9214 48.0326 44.7013 47.9057 44.9099C47.9057 44.9099 47.3977 44.837 47.3253 44.5469C47.3253 44.5469 47.4431 46.0705 47.2799 46.2337C47.2799 46.2337 46.8446 46.4425 46.5996 46.0798C46.5996 46.0798 46.5363 46.8143 46.8355 47.1135C46.8355 47.1135 46.6814 47.5852 46.3731 47.4217C46.3731 47.4217 46.5633 48.0203 47.0168 48.0566C47.0168 48.0566 47.0824 48.4309 46.6711 48.3968C46.6711 48.3968 46.7398 48.9796 47.2608 49.0137C47.2608 49.0137 47.4733 49.3499 47.1305 49.4047C47.1305 49.4047 47.3158 49.8847 47.878 49.8506C47.878 49.8506 47.7749 50.2079 47.6618 50.2617ZM56.6889 54.4889C56.6889 54.4889 57.8158 54.0636 57.5942 53.2363C57.3726 52.4093 56.2921 51.5872 56.2921 49.8261C56.2921 48.065 58.1884 45.6604 60.3836 45.561C60.3836 45.561 60.979 45.5607 60.8052 45.8957C60.6315 46.2305 59.5404 46.6151 59.838 46.6524C60.1355 46.6894 60.9912 46.5284 60.7804 46.8136C60.5696 47.0988 59.838 47.7933 58.6721 47.0244C58.6721 47.0244 56.8366 48.0164 56.8366 49.8396C56.8366 51.6627 58.1263 52.2952 58.1263 53.4238C58.1263 54.5525 56.7497 55.2347 56.7497 55.2347C56.7497 55.2347 57.3311 58.3363 59.7144 58.3255C59.7144 58.3255 58.7437 60.0942 59.8869 60.946C59.8869 60.946 59.5207 61.1181 59.423 61.0692C59.423 61.0692 59.6024 61.7053 59.7818 61.9012L59.3659 61.7299C59.3659 61.7299 59.3497 62.1785 59.5126 62.4475L59.0643 62.2519C59.0643 62.2519 59.0476 63.4345 59.2844 63.7362C59.2844 63.7362 58.795 63.7769 58.6728 63.4262C58.6728 63.4262 57.9633 64.6251 56.8705 64.8209L56.8298 64.2908L56.0957 64.2417C56.0957 64.2417 57.7461 62.4163 57.7461 60.9534C57.7461 59.4902 55.9863 58.377 55.3607 58.2605C54.7354 58.1439 54.2688 56.5534 54.1523 55.928C54.0357 55.3025 52.7951 54.0408 51.8515 53.8182C50.9079 53.5956 50.6183 53.3438 50.8029 53.1433C50.9872 52.9428 51.4122 52.5578 51.4363 52.0127C51.4603 51.4674 52.0375 51.1307 52.0375 51.1307C52.0375 51.1307 51.4682 51.1547 51.0993 51.9405C50.7307 52.7264 50.3059 53.1993 49.9368 53.1752C49.5679 53.1512 49.7095 52.9747 49.7095 52.9747C49.7095 52.9747 49.3289 53.5272 49.082 53.5753C49.082 53.5753 49.1787 53.2268 49.1358 52.9855C49.1358 52.9855 48.331 53.602 48.1917 53.6558C48.1917 53.6558 48.2292 53.361 48.1703 53.1892C48.1703 53.1892 47.5911 53.8273 47.3123 53.8489C47.3123 53.8489 47.4085 53.5699 47.3658 53.3554C47.3658 53.3554 46.7759 53.7308 46.2556 53.7203C46.2556 53.7203 46.5773 53.243 46.4487 52.8834C46.4487 52.8834 45.6199 53.4813 44.6184 52.8641C44.6184 52.8641 45.1728 52.4974 45.3159 52.1396C45.3159 52.1396 44.2785 52.0861 44.0996 51.8355C44.0996 51.8355 45.468 50.861 46.3356 51.5226C47.2031 52.1845 47.57 52.3722 48.1244 51.8267C48.6788 51.2811 49.0764 51.4414 48.8528 50.9532C48.6295 50.4651 48.4204 49.4815 49.0685 48.8591C49.0685 48.8591 49.0599 50.1127 49.3669 50.4708C49.3669 50.4708 49.2901 48.5094 49.9127 48.279C49.9127 48.279 49.8448 49.1063 50.0067 49.3877C50.0067 49.3877 50.2757 47.7786 51.2127 47.7786C52.1499 47.7786 52.6894 47.2897 52.4398 47.0229C52.1902 46.7559 51.6679 46.7208 51.8186 46.5002C51.9696 46.2798 52.4862 46.6281 52.6545 46.512C52.8229 46.3959 52.7939 46.0128 52.08 46.094C51.3661 46.1753 50.3503 46.338 50.3388 45.2292C50.327 44.1207 50.7449 44.7882 50.8495 45.0552C50.954 45.3222 51.2152 45.8445 52.0103 45.8445C52.8054 45.8445 52.9389 46.1868 52.9389 46.1868C52.9389 46.1868 53.2408 45.5544 52.4805 45.56C51.7202 45.5659 51.7057 45.3234 51.6986 44.8319C51.6918 44.3403 52.0567 44.1297 52.4501 44.1158C52.8435 44.1018 52.7036 44.4748 52.8999 44.5492C53.0965 44.6235 53.0062 44.8358 53.1125 44.8039C53.2187 44.772 53.086 44.6019 53.3301 44.6127C53.5746 44.6235 53.8507 44.4056 53.5692 44.3577C53.2877 44.3101 52.9745 44.3685 52.9637 44.1295C52.9532 43.8905 53.7019 43.8001 54.2011 44.2304C54.7003 44.6606 54.6495 44.7973 54.7742 44.7187C54.8988 44.64 55.1992 44.2245 55.2544 44.5708C55.3099 44.9173 55.2289 44.9322 55.2883 45.2638C55.3479 45.5951 55.744 46.794 55.4338 47.8151C55.1236 48.8363 54.6691 48.9058 54.6301 49.6776C54.5911 50.4497 54.8547 50.6062 54.7376 51.1241C54.6205 51.6421 54.1376 52.422 53.7635 52.5583C53.7635 52.5583 54.2149 52.6716 54.3562 52.3889C54.3562 52.3889 55.0696 53.0955 55.2817 53.1855C55.4937 53.2756 56.1171 53.5777 56.6889 54.4889ZM54.0139 50.6919C54.0139 50.6919 53.5662 51.206 53.512 51.7501C53.4575 52.2942 53.282 52.9109 52.4658 52.9593C52.4658 52.9593 53.1309 52.7779 53.2639 51.7501C53.3969 50.7221 54.0139 50.6919 54.0139 50.6919ZM53.1046 50.6919C53.1046 50.6919 52.657 51.206 52.6027 51.7501C52.5483 52.2942 52.3728 52.9109 51.5565 52.9593C51.5565 52.9593 52.2216 52.7779 52.3546 51.7501C52.4876 50.7221 53.1046 50.6919 53.1046 50.6919ZM52.1917 55.2178C52.0076 55.6627 51.2628 59.2235 49.4339 59.1751C47.6054 59.1268 46.8507 57.9849 46.8507 57.9849C46.8507 57.9849 46.6382 58.701 46.967 59.0298C46.967 59.0298 46.4058 59.233 46.0477 59.1945C46.0477 59.1945 46.9474 60.3261 47.7698 60.1232C47.7698 60.1232 48.1065 60.4515 47.7627 60.7661C47.7627 60.7661 48.4434 61.0511 48.9627 60.5904C48.9627 60.5904 49.336 60.8466 49.1895 61.1757C49.1895 61.1757 50.0234 61.0587 50.2649 60.3781C50.2649 60.3781 50.6674 60.5757 50.609 60.8319C50.609 60.8319 50.8797 60.4002 50.9089 60.0564C50.9089 60.0564 51.3553 60.144 51.3553 60.4221C51.3553 60.4221 52.1629 58.1459 54.6642 57.8629C54.3206 57.3122 54.0789 56.4388 53.9994 56.0127C53.9427 55.7074 53.6178 55.2505 53.1905 54.8367C52.8158 54.8602 52.305 54.9432 52.1917 55.2178Z" fill="white"/>
<path fill-rule="evenodd" clip-rule="evenodd" d="M52.4738 19.7032L52.1312 19.11L51.7888 18.5168H52.4738H53.1585L52.8161 19.11L52.4738 19.7032ZM52.1876 19.9798L51.5944 20.3224L51.0013 20.6647V19.9798V19.2951L51.5944 19.6374L52.1876 19.9798ZM52.7503 19.9891L53.3435 19.6467L53.9367 19.3044V19.9891V20.674L53.3435 20.3317L52.7503 19.9891ZM52.4691 22.0525C52.929 22.0525 53.3018 21.6797 53.3018 21.2198C53.3018 20.7597 52.929 20.3869 52.4691 20.3869C52.0089 20.3869 51.6362 20.7597 51.6362 21.2198C51.6362 21.6797 52.0089 22.0525 52.4691 22.0525ZM51.9348 27.7793L50.1818 27.7749C50.1818 27.7749 50.5534 27.044 49.7305 26.8236C48.9074 26.603 48.6858 25.3644 48.6858 25.0363C48.6858 24.7082 48.6455 23.2087 49.971 23.2087C51.2965 23.2087 51.9314 24.6343 52.0732 25.1636C52.2148 25.693 52.0192 26.1875 52.0192 26.1875C52.0192 26.1875 51.379 26.2771 51.379 26.8278C51.379 27.3785 52.1083 27.3375 52.1083 27.3375V27.5191C51.9579 27.5191 51.9348 27.7793 51.9348 27.7793ZM53.0031 27.7793L54.7564 27.7749C54.7564 27.7749 54.3846 27.044 55.2077 26.8236C56.0305 26.603 56.2524 25.3644 56.2524 25.0363C56.2524 24.7082 56.2924 23.2087 54.9669 23.2087C53.6417 23.2087 53.0068 24.6343 52.8649 25.1636C52.7231 25.693 52.9187 26.1875 52.9187 26.1875C52.9187 26.1875 53.559 26.2771 53.559 26.8278C53.559 27.3785 52.8299 27.3375 52.8299 27.3375V27.5191C52.98 27.5191 53.0031 27.7793 53.0031 27.7793ZM59.4018 25.0589C59.4018 27.2561 57.2404 28.4652 57.2404 28.4652C57.2404 28.4652 57.1244 29.8908 56.8745 30.3235H52.4691H48.0634C47.8136 29.8908 47.6975 28.4652 47.6975 28.4652C47.6975 28.4652 45.5361 27.2561 45.5361 25.0589C45.5361 22.8617 47.909 23.55 47.909 23.55C47.909 23.55 48.1289 21.9826 49.8571 21.9826C51.1228 21.9826 52.0585 23.341 52.4691 24.0689C52.8794 23.341 53.8152 21.9826 55.0808 21.9826C56.8092 21.9826 57.0289 23.55 57.0289 23.55C57.0289 23.55 59.4018 22.8617 59.4018 25.0589ZM56.3859 29.683C56.4608 29.7134 56.5462 29.6776 56.5763 29.6027C56.6068 29.5281 56.5709 29.4427 56.4961 29.4123C55.1419 28.8321 49.796 28.8321 48.4418 29.4123C48.367 29.4427 48.3312 29.5281 48.3616 29.6027C48.3918 29.6776 48.4772 29.7134 48.552 29.683C49.9452 29.1259 54.9929 29.1259 56.3859 29.683ZM56.3677 26.684C56.3677 26.684 57.0284 27.4369 56.1685 27.8431C57.331 28.1219 58.4938 26.8082 58.4938 25.6375C58.4938 24.4669 57.1226 24.5219 57.1226 24.5219C57.1226 24.5219 57.3119 26.1389 56.3677 26.684ZM48.5702 26.684C48.5702 26.684 47.9095 27.4369 48.7695 27.8431C47.6069 28.1219 46.4444 26.8082 46.4444 25.6375C46.4444 24.4669 47.8153 24.5219 47.8153 24.5219C47.8153 24.5219 47.6261 26.1389 48.5702 26.684Z" fill="white"/>
</svg>
