<svg width="252" height="101" viewBox="0 0 252 101" fill="none" xmlns="http://www.w3.org/2000/svg">
<path d="M45.5645 86.6797L49.793 90.9082L50.1465 91.2627L50.5 90.9082L54.7275 86.6797H63.0518L50.1465 99.585L37.2412 86.6797H45.5645ZM16.2617 34.5908C16.6806 36.742 17.4942 38.7558 18.6221 40.5537L9.38379 49.793L9.03027 50.1465L14.4541 55.5703C13.2997 57.302 12.4066 59.2217 11.833 61.2725L0.707031 50.1465L16.2617 34.5908ZM99.584 50.1455L88.459 61.2705C87.8854 59.2204 86.9922 57.3015 85.8379 55.5703L90.9082 50.5L91.2627 50.1465L90.9082 49.793L81.6689 40.5537C82.7971 38.7554 83.6104 36.7416 84.0293 34.5898L99.584 50.1455ZM63.0518 13.6123H54.7285L50.1465 9.03027L45.5645 13.6123H37.2412L50.1465 0.707031L63.0518 13.6123Z" fill="#A7CF3F" stroke="white"/>
<path d="M31.1396 49.2134H48.5654V84.064H31.1406C21.5574 84.064 13.715 76.222 13.7148 66.6392C13.7148 57.2058 21.314 49.4589 30.6924 49.2192L31.1396 49.2134Z" fill="#363894" stroke="white"/>
<path d="M69.1527 49.2134C78.7356 49.2135 86.5775 57.0563 86.5775 66.6392C86.5774 76.2219 78.7355 84.0638 69.1527 84.064H51.7269V49.2134H69.1527Z" fill="#363894" stroke="white"/>
<path d="M66.7328 16.2285C74.9843 16.2288 81.7377 22.9825 81.7377 31.2344C81.7374 39.4857 74.9842 46.239 66.7328 46.2393H51.7269V16.2285H66.7328Z" fill="#363894" stroke="white"/>
<path d="M48.5658 16.2285V31.2344C48.5655 39.4857 41.8123 46.239 33.5609 46.2393C25.309 46.2393 18.5553 39.4859 18.5551 31.2344V16.2285H48.5658Z" fill="#363894" stroke="white"/>
<path fill-rule="evenodd" clip-rule="evenodd" d="M59.7514 63.0108C59.617 63.0745 60.2418 63.7033 61.1107 63.6083C60.8753 63.0382 60.6901 62.0539 61.2088 61.3208C60.3646 60.3599 60.451 58.5687 60.4929 58.0472C60.5406 57.451 60.8267 57.4091 60.9365 56.5387C61.0464 55.6687 60.1935 55.0623 60.1935 55.0623C60.1935 55.0623 60.2163 56.04 60.0572 56.3015C60.0572 56.3015 59.4204 56.2101 59.3296 55.8465C59.3296 55.8465 59.4773 57.7565 59.2727 57.9611C59.2727 57.9611 58.7269 58.2229 58.4198 57.7682C58.4198 57.7682 58.3405 58.689 58.7155 59.0641C58.7155 59.0641 58.5223 59.6554 58.1359 59.4505C58.1359 59.4505 58.3743 60.2009 58.9429 60.2464C58.9429 60.2464 59.025 60.7156 58.5094 60.6728C58.5094 60.6728 58.5955 61.4035 59.2487 61.4463C59.2487 61.4463 59.5151 61.8678 59.0853 61.9364C59.0853 61.9364 59.3176 62.5382 60.0225 62.4955C60.0225 62.4955 59.8932 62.9434 59.7514 63.0108ZM71.0683 68.3103C71.0683 68.3103 72.4811 67.7771 72.2032 66.74C71.9254 65.7032 70.5708 64.6725 70.5708 62.4647C70.5708 60.2569 72.9481 57.2424 75.7002 57.1178C75.7002 57.1178 76.4466 57.1175 76.2287 57.5374C76.0109 57.9571 74.643 58.4392 75.0162 58.4859C75.3891 58.5324 76.4619 58.3306 76.1977 58.6881C75.9334 59.0456 75.0162 59.9163 73.5545 58.9524C73.5545 58.9524 71.2535 60.196 71.2535 62.4816C71.2535 64.7672 72.8703 65.5601 72.8703 66.975C72.8703 68.39 71.1446 69.2453 71.1446 69.2453C71.1446 69.2453 71.8734 73.1336 74.8612 73.12C74.8612 73.12 73.6443 75.3374 75.0774 76.4053C75.0774 76.4053 74.6184 76.621 74.496 76.5598C74.496 76.5598 74.7209 77.3572 74.9458 77.6027L74.4243 77.388C74.4243 77.388 74.404 77.9504 74.6083 78.2876L74.0461 78.0424C74.0461 78.0424 74.0252 79.525 74.3221 79.9031C74.3221 79.9031 73.7086 79.9542 73.5554 79.5146C73.5554 79.5146 72.666 81.0175 71.2959 81.263L71.2449 80.5985L70.3246 80.5369C70.3246 80.5369 72.3937 78.2485 72.3937 76.4145C72.3937 74.5802 70.1874 73.1847 69.4032 73.0385C68.6192 72.8924 68.0344 70.8984 67.8882 70.1145C67.7421 69.3302 66.1868 67.7485 65.0039 67.4695C63.8209 67.1904 63.4578 66.8748 63.6892 66.6234C63.9203 66.372 64.4531 65.8893 64.4833 65.206C64.5134 64.5223 65.2371 64.1002 65.2371 64.1002C65.2371 64.1002 64.5233 64.1304 64.0609 65.1155C63.5988 66.1007 63.0662 66.6935 62.6035 66.6634C62.141 66.6332 62.3186 66.412 62.3186 66.412C62.3186 66.412 61.8414 67.1046 61.5319 67.1649C61.5319 67.1649 61.6531 66.728 61.5992 66.4256C61.5992 66.4256 60.5904 67.1984 60.4157 67.2658C60.4157 67.2658 60.4627 66.8963 60.3889 66.6809C60.3889 66.6809 59.6628 67.4809 59.3133 67.5079C59.3133 67.5079 59.4339 67.1581 59.3804 66.8892C59.3804 66.8892 58.6407 67.3599 57.9885 67.3467C57.9885 67.3467 58.3918 66.7483 58.2306 66.2976C58.2306 66.2976 57.1916 67.0471 55.936 66.2733C55.936 66.2733 56.6311 65.8136 56.8104 65.365C56.8104 65.365 55.5099 65.298 55.2856 64.9838C55.2856 64.9838 57.0012 63.7621 58.0888 64.5916C59.1764 65.4213 59.6363 65.6567 60.3314 64.9728C61.0264 64.2888 61.5248 64.4897 61.2445 63.8778C60.9645 63.2658 60.7024 62.0327 61.5149 61.2525C61.5149 61.2525 61.5042 62.824 61.8891 63.2729C61.8891 63.2729 61.7928 60.8141 62.5733 60.5252C62.5733 60.5252 62.4881 61.5623 62.6911 61.9152C62.6911 61.9152 63.0284 59.8978 64.203 59.8978C65.378 59.8978 66.0542 59.285 65.7413 58.9505C65.4284 58.6158 64.7737 58.5718 64.9626 58.2952C65.1519 58.0189 65.7995 58.4555 66.0106 58.31C66.2216 58.1644 66.1853 57.6842 65.2903 57.786C64.3953 57.8878 63.1219 58.0918 63.1074 56.7018C63.0926 55.3121 63.6166 56.1489 63.7477 56.4837C63.8787 56.8184 64.2061 57.4731 65.2029 57.4731C66.1998 57.4731 66.3671 57.9023 66.3671 57.9023C66.3671 57.9023 66.7456 57.1095 65.7924 57.1165C64.8393 57.1239 64.8211 56.82 64.8122 56.2037C64.8036 55.5874 65.2611 55.3235 65.7543 55.3059C66.2475 55.2884 66.0721 55.756 66.3182 55.8493C66.5647 55.9425 66.4514 56.2086 66.5847 56.1686C66.7179 56.1286 66.5514 55.9154 66.8575 55.9289C67.164 55.9425 67.5101 55.6693 67.1572 55.6093C66.8043 55.5496 66.4117 55.6228 66.3982 55.3232C66.385 55.0235 67.3237 54.9103 67.9495 55.4496C68.5752 55.9889 68.5116 56.1603 68.6679 56.0619C68.8241 55.9631 69.2007 55.4422 69.27 55.8763C69.3395 56.3108 69.238 56.3295 69.3124 56.7452C69.3872 57.1605 69.8837 58.6635 69.4949 59.9437C69.106 61.2239 68.5362 61.3109 68.4873 62.2785C68.4383 63.2465 68.7688 63.4427 68.622 64.0919C68.4753 64.7414 67.8698 65.7192 67.4009 65.8899C67.4009 65.8899 67.9667 66.0321 68.1439 65.6776C68.1439 65.6776 69.0383 66.5634 69.3041 66.6763C69.5699 66.7892 70.3514 67.168 71.0683 68.3103ZM67.7147 63.5501C67.7147 63.5501 67.1535 64.1947 67.0855 64.8768C67.0172 65.5589 66.7972 66.332 65.774 66.3926C65.774 66.3926 66.6077 66.1653 66.7745 64.8768C66.9412 63.588 67.7147 63.5501 67.7147 63.5501ZM66.5748 63.5501C66.5748 63.5501 66.0136 64.1947 65.9456 64.8768C65.8773 65.5589 65.6573 66.332 64.634 66.3926C64.634 66.3926 65.4678 66.1653 65.6346 64.8768C65.8013 63.588 66.5748 63.5501 66.5748 63.5501ZM65.4303 69.2241C65.1995 69.7819 64.2658 74.2458 61.9731 74.1852C59.6806 74.1246 58.7346 72.693 58.7346 72.693C58.7346 72.693 58.4681 73.5908 58.8804 74.003C58.8804 74.003 58.1768 74.2578 57.7279 74.2095C57.7279 74.2095 58.8558 75.6281 59.8868 75.3737C59.8868 75.3737 60.3089 75.7854 59.8779 76.1798C59.8779 76.1798 60.7313 76.537 61.3823 75.9595C61.3823 75.9595 61.8503 76.2807 61.6666 76.6933C61.6666 76.6933 62.7121 76.5465 63.0148 75.6934C63.0148 75.6934 63.5194 75.941 63.4462 76.2622C63.4462 76.2622 63.7855 75.7211 63.8221 75.29C63.8221 75.29 64.3818 75.3998 64.3818 75.7484C64.3818 75.7484 65.3943 72.8948 68.53 72.5401C68.0993 71.8497 67.7962 70.7547 67.6966 70.2206C67.6255 69.8379 67.2181 69.265 66.6825 68.7463C66.2127 68.7758 65.5724 68.8798 65.4303 69.2241Z" fill="white"/>
<path fill-rule="evenodd" clip-rule="evenodd" d="M65.7831 24.7009L65.3536 23.9572L64.9245 23.2136H65.7831H66.6415L66.2123 23.9572L65.7831 24.7009ZM65.4244 25.0476L64.6808 25.4771L63.9372 25.9063V25.0476V24.1892L64.6808 24.6184L65.4244 25.0476ZM66.1299 25.0593L66.8735 24.6301L67.6171 24.2009V25.0593V25.918L66.8735 25.4888L66.1299 25.0593ZM65.7773 27.6462C66.3539 27.6462 66.8212 27.1788 66.8212 26.6022C66.8212 26.0254 66.3539 25.558 65.7773 25.558C65.2004 25.558 64.7331 26.0254 64.7331 26.6022C64.7331 27.1788 65.2004 27.6462 65.7773 27.6462ZM65.1075 34.8255L62.9099 34.82C62.9099 34.82 63.3757 33.9038 62.3441 33.6275C61.3121 33.3509 61.0343 31.7981 61.0343 31.3867C61.0343 30.9754 60.9839 29.0956 62.6456 29.0956C64.3073 29.0956 65.1032 30.8828 65.281 31.5464C65.4586 32.2101 65.2133 32.83 65.2133 32.83C65.2133 32.83 64.4107 32.9423 64.4107 33.6327C64.4107 34.3231 65.325 34.2717 65.325 34.2717V34.4994C65.1364 34.4994 65.1075 34.8255 65.1075 34.8255ZM66.4468 34.8255L68.6447 34.82C68.6447 34.82 68.1786 33.9038 69.2105 33.6275C70.2421 33.3509 70.5203 31.7981 70.5203 31.3867C70.5203 30.9754 70.5704 29.0956 68.9087 29.0956C67.2473 29.0956 66.4514 30.8828 66.2736 31.5464C66.0957 32.2101 66.3409 32.83 66.3409 32.83C66.3409 32.83 67.1436 32.9423 67.1436 33.6327C67.1436 34.3231 66.2296 34.2717 66.2296 34.2717V34.4994C66.4179 34.4994 66.4468 34.8255 66.4468 34.8255ZM74.4685 31.4151C74.4685 34.1696 71.7589 35.6854 71.7589 35.6854C71.7589 35.6854 71.6134 37.4727 71.3002 38.0151H65.7773H60.2541C59.9409 37.4727 59.7954 35.6854 59.7954 35.6854C59.7954 35.6854 57.0858 34.1696 57.0858 31.4151C57.0858 28.6605 60.0606 29.5235 60.0606 29.5235C60.0606 29.5235 60.3362 27.5585 62.5028 27.5585C64.0894 27.5585 65.2626 29.2614 65.7773 30.1739C66.2917 29.2614 67.4648 27.5585 69.0515 27.5585C71.2184 27.5585 71.4937 29.5235 71.4937 29.5235C71.4937 29.5235 74.4685 28.6605 74.4685 31.4151ZM70.6876 37.2121C70.7815 37.2502 70.8885 37.2053 70.9264 37.1115C70.9645 37.0179 70.9196 36.9109 70.8258 36.8727C69.1281 36.1454 62.4262 36.1454 60.7285 36.8727C60.6347 36.9109 60.5898 37.0179 60.6279 37.1115C60.6657 37.2053 60.7728 37.2502 60.8666 37.2121C62.6133 36.5137 68.9413 36.5137 70.6876 37.2121ZM70.6649 33.4524C70.6649 33.4524 71.4931 34.3963 70.415 34.9055C71.8725 35.255 73.3302 33.6081 73.3302 32.1405C73.3302 30.673 71.6112 30.7419 71.6112 30.7419C71.6112 30.7419 71.8485 32.7691 70.6649 33.4524ZM60.8894 33.4524C60.8894 33.4524 60.0612 34.3963 61.1392 34.9055C59.6818 35.255 58.2244 33.6081 58.2244 32.1405C58.2244 30.673 59.943 30.7419 59.943 30.7419C59.943 30.7419 59.7058 32.7691 60.8894 33.4524Z" fill="white"/>
<path d="M120.647 28.0861V16.0598H126.522C128.034 16.0598 129.171 16.3463 129.933 16.9188C130.694 17.4917 131.075 18.2476 131.075 19.1866C131.075 19.8167 130.92 20.3634 130.611 20.8274C130.302 21.2914 129.878 21.6492 129.34 21.9012C128.802 22.1531 128.183 22.2793 127.484 22.2793L127.811 21.5747C128.567 21.5747 129.237 21.6978 129.821 21.9442C130.405 22.1904 130.86 22.554 131.187 23.0352C131.513 23.5161 131.676 24.1062 131.676 24.8046C131.676 25.8356 131.27 26.6401 130.457 27.2185C129.643 27.7969 128.447 28.0861 126.866 28.0861H120.647ZM123.413 25.99H126.66C127.381 25.99 127.928 25.8728 128.3 25.6381C128.673 25.403 128.859 25.0279 128.859 24.5126C128.859 24.0087 128.673 23.6336 128.3 23.3872C127.928 23.141 127.381 23.018 126.66 23.018H123.206V20.9908H126.179C126.854 20.9908 127.373 20.8732 127.733 20.6385C128.094 20.4037 128.275 20.0456 128.275 19.5647C128.275 19.0952 128.094 18.743 127.733 18.5082C127.373 18.2732 126.854 18.1559 126.179 18.1559H123.413V25.99ZM136.349 20.9046H142.139V23.0694H136.349V20.9046ZM136.555 25.8528H143.101V28.0861H133.789V16.0598H142.878V18.2935H136.555V25.8528ZM145.317 28.0861V16.0598H147.619L154.715 24.7188H153.598V16.0598H156.347V28.0861H154.062L146.95 19.4272H148.066V28.0861H145.317ZM161.759 20.9046H167.549V23.0694H161.759V20.9046ZM161.965 25.8528H168.511V28.0861H159.199V16.0598H168.288V18.2935H161.965V25.8528ZM170.727 28.0861V16.0598H173.51V25.8183H179.541V28.0861H170.727ZM186.292 28.2923C184.586 28.2923 183.251 27.8169 182.289 26.8662C181.327 25.9156 180.846 24.5585 180.846 22.7946V16.0598H183.629V22.6915C183.629 23.837 183.864 24.6615 184.334 25.1655C184.803 25.6694 185.462 25.9214 186.309 25.9214C187.157 25.9214 187.816 25.6694 188.285 25.1655C188.755 24.6615 188.99 23.837 188.99 22.6915V16.0598H191.739V22.7946C191.739 24.5585 191.257 25.9156 190.295 26.8662C189.333 27.8169 187.999 28.2923 186.292 28.2923ZM192.941 28.0861L198.112 20.9563V22.9835L193.164 16.0598H196.325L199.745 20.8877L198.422 20.9046L201.789 16.0598H204.813L199.899 22.8632V20.8705L205.105 28.0861H201.892L198.353 22.9835H199.624L196.137 28.0861H192.941Z" fill="white"/>
<path d="M126.402 46.2644C125.497 46.2644 124.661 46.1128 123.894 45.8091C123.126 45.5057 122.462 45.079 121.901 44.5292C121.34 43.9794 120.901 43.3324 120.586 42.5878C120.272 41.8433 120.114 41.0301 120.114 40.1484C120.114 39.2663 120.272 38.4531 120.586 37.7086C120.901 36.964 121.342 36.317 121.909 35.7672C122.476 35.2174 123.143 34.791 123.911 34.4873C124.678 34.184 125.514 34.032 126.419 34.032C127.29 34.032 128.108 34.1781 128.876 34.4701C129.643 34.7621 130.29 35.2002 130.817 35.7844L130.01 36.5921C129.517 36.0881 128.973 35.7244 128.378 35.5011C127.782 35.2777 127.141 35.166 126.454 35.166C125.732 35.166 125.062 35.2891 124.444 35.5352C123.825 35.7817 123.287 36.1309 122.829 36.5835C122.37 37.0357 122.012 37.5627 121.755 38.1639C121.497 38.7651 121.368 39.4266 121.368 40.1484C121.368 40.8698 121.497 41.5313 121.755 42.1325C122.012 42.734 122.37 43.2607 122.829 43.7133C123.287 44.1656 123.825 44.5151 124.444 44.7612C125.062 45.0073 125.732 45.1307 126.454 45.1307C127.141 45.1307 127.782 45.0159 128.378 44.787C128.973 44.5578 129.517 44.1914 130.01 43.6874L130.817 44.4947C130.29 45.079 129.643 45.5199 128.876 45.8177C128.108 46.1155 127.284 46.2644 126.402 46.2644ZM142.328 34.1351H143.582V46.1614H142.328V34.1351ZM134.803 46.1614H133.532V34.1351H134.803V46.1614ZM142.448 40.612H134.666V39.4955H142.448V40.612ZM145.576 46.1614L151.073 34.1351H152.327L157.825 46.1614H156.485L151.434 34.8738H151.949L146.898 46.1614H145.576ZM147.74 42.9487L148.118 41.9178H155.11L155.489 42.9487H147.74ZM159.818 46.1614V34.1351H160.866L166.364 43.5154H165.814L171.26 34.1351H172.308V46.1614H171.088V36.0423H171.38L166.364 44.6323H165.762L160.711 36.0423H161.038V46.1614H159.818ZM176.225 46.1614V34.1351H181.414C182.753 34.1351 183.793 34.4043 184.532 34.9427C185.271 35.4811 185.64 36.2426 185.64 37.2277C185.64 37.8806 185.488 38.4304 185.185 38.8768C184.881 39.3235 184.469 39.6613 183.948 39.8905C183.427 40.1198 182.857 40.2342 182.238 40.2342L182.53 39.8219C183.298 39.8219 183.959 39.9392 184.515 40.1739C185.07 40.409 185.502 40.7582 185.812 41.2221C186.121 41.6858 186.276 42.2614 186.276 42.9487C186.276 43.968 185.901 44.7584 185.15 45.3196C184.4 45.8808 183.269 46.1614 181.757 46.1614H176.225ZM177.496 45.1135H181.74C182.794 45.1135 183.601 44.9329 184.162 44.5723C184.724 44.2114 185.004 43.6357 185.004 42.8457C185.004 42.0667 184.724 41.4969 184.162 41.1363C183.601 40.7754 182.794 40.5951 181.74 40.5951H177.359V39.5469H181.328C182.29 39.5469 183.037 39.3638 183.57 38.9971C184.102 38.6307 184.369 38.0867 184.369 37.3649C184.369 36.6321 184.102 36.085 183.57 35.7244C183.037 35.3636 182.29 35.1833 181.328 35.1833H177.496V45.1135ZM190.313 39.5127H196.67V40.5951H190.313V39.5127ZM190.45 45.0618H197.683V46.1614H189.179V34.1351H197.426V35.2346H190.45V45.0618ZM200.673 46.1614V34.1351H205.174C206.193 34.1351 207.07 34.2984 207.803 34.6249C208.536 34.9513 209.1 35.4208 209.495 36.0337C209.89 36.6462 210.088 37.388 210.088 38.2584C210.088 39.106 209.89 39.8361 209.495 40.449C209.1 41.0618 208.536 41.5313 207.803 41.8578C207.07 42.1842 206.193 42.3473 205.174 42.3473H201.377L201.944 41.7633V46.1614H200.673ZM208.885 46.1614L205.792 41.7975H207.167L210.277 46.1614H208.885ZM201.944 41.8664L201.377 41.2649H205.14C206.342 41.2649 207.256 41.0015 207.88 40.4748C208.504 39.9478 208.816 39.2091 208.816 38.2584C208.816 37.2963 208.504 36.5518 207.88 36.025C207.256 35.498 206.342 35.2346 205.14 35.2346H201.377L201.944 34.6335V41.8664ZM222.852 46.2644C221.948 46.2644 221.109 46.1128 220.336 45.8091C219.563 45.5057 218.892 45.0762 218.325 44.5206C217.758 43.9653 217.318 43.3179 217.002 42.5792C216.688 41.8405 216.53 41.0301 216.53 40.1484C216.53 39.2663 216.688 38.4559 217.002 37.7172C217.318 36.9785 217.758 36.3315 218.325 35.7758C218.892 35.2205 219.559 34.791 220.327 34.4873C221.094 34.184 221.936 34.032 222.852 34.032C223.757 34.032 224.594 34.184 225.361 34.4873C226.128 34.791 226.795 35.2174 227.362 35.7672C227.929 36.317 228.37 36.964 228.685 37.7086C229 38.4531 229.158 39.2663 229.158 40.1484C229.158 41.0301 229 41.8433 228.685 42.5878C228.37 43.3324 227.929 43.9794 227.362 44.5292C226.795 45.079 226.128 45.5057 225.361 45.8091C224.594 46.1128 223.757 46.2644 222.852 46.2644ZM222.852 45.1307C223.574 45.1307 224.241 45.0073 224.854 44.7612C225.467 44.5151 225.999 44.1656 226.452 43.7133C226.904 43.2607 227.256 42.734 227.508 42.1325C227.76 41.5313 227.886 40.8698 227.886 40.1484C227.886 39.4266 227.76 38.7651 227.508 38.1639C227.256 37.5627 226.904 37.0357 226.452 36.5835C225.999 36.1309 225.467 35.7817 224.854 35.5352C224.241 35.2891 223.574 35.166 222.852 35.166C222.131 35.166 221.461 35.2891 220.842 35.5352C220.224 35.7817 219.688 36.1309 219.236 36.5835C218.784 37.0357 218.429 37.5627 218.171 38.1639C217.913 38.7651 217.784 39.4266 217.784 40.1484C217.784 40.8585 217.913 41.5169 218.171 42.1239C218.429 42.7309 218.784 43.2607 219.236 43.7133C219.688 44.1656 220.224 44.5151 220.842 44.7612C221.461 45.0073 222.131 45.1307 222.852 45.1307ZM233.144 39.9592H239.501V41.0588H233.144V39.9592ZM233.281 46.1614H232.01V34.1351H240.256V35.2346H233.281V46.1614ZM126.402 64.7022C125.497 64.7022 124.661 64.5505 123.894 64.2469C123.126 63.9435 122.462 63.5168 121.901 62.967C121.34 62.4172 120.901 61.7702 120.586 61.0256C120.272 60.2811 120.114 59.4679 120.114 58.5861C120.114 57.7041 120.272 56.8909 120.586 56.1463C120.901 55.4018 121.342 54.7548 121.909 54.205C122.476 53.6552 123.143 53.2288 123.911 52.9251C124.678 52.6217 125.514 52.4697 126.419 52.4697C127.29 52.4697 128.108 52.6159 128.876 52.9079C129.643 53.1998 130.29 53.6379 130.817 54.2222L130.01 55.0298C129.517 54.5259 128.973 54.1622 128.378 53.9388C127.782 53.7155 127.141 53.6038 126.454 53.6038C125.732 53.6038 125.062 53.7269 124.444 53.973C123.825 54.2194 123.287 54.5686 122.829 55.0212C122.37 55.4735 122.012 56.0005 121.755 56.6017C121.497 57.2029 121.368 57.8644 121.368 58.5861C121.368 59.3076 121.497 59.9691 121.755 60.5703C122.012 61.1717 122.37 61.6985 122.829 62.1511C123.287 62.6033 123.825 62.9528 124.444 63.1989C125.062 63.4451 125.732 63.5685 126.454 63.5685C127.141 63.5685 127.782 63.4537 128.378 63.2248C128.973 62.9956 129.517 62.6292 130.01 62.1252L130.817 62.9325C130.29 63.5168 129.643 63.9577 128.876 64.2555C128.108 64.5533 127.284 64.7022 126.402 64.7022ZM138.531 64.7022C137.626 64.7022 136.787 64.5505 136.015 64.2469C135.241 63.9435 134.571 63.514 134.004 62.9584C133.437 62.403 132.996 61.7557 132.681 61.017C132.367 60.2783 132.209 59.4679 132.209 58.5861C132.209 57.7041 132.367 56.8937 132.681 56.155C132.996 55.4163 133.437 54.7692 134.004 54.2136C134.571 53.6583 135.238 53.2288 136.006 52.9251C136.773 52.6217 137.615 52.4697 138.531 52.4697C139.436 52.4697 140.272 52.6217 141.04 52.9251C141.807 53.2288 142.474 53.6552 143.041 54.205C143.608 54.7548 144.049 55.4018 144.364 56.1463C144.679 56.8909 144.837 57.7041 144.837 58.5861C144.837 59.4679 144.679 60.2811 144.364 61.0256C144.049 61.7702 143.608 62.4172 143.041 62.967C142.474 63.5168 141.807 63.9435 141.04 64.2469C140.272 64.5505 139.436 64.7022 138.531 64.7022ZM138.531 63.5685C139.253 63.5685 139.92 63.4451 140.533 63.1989C141.145 62.9528 141.678 62.6033 142.131 62.1511C142.583 61.6985 142.935 61.1717 143.187 60.5703C143.439 59.9691 143.565 59.3076 143.565 58.5861C143.565 57.8644 143.439 57.2029 143.187 56.6017C142.935 56.0005 142.583 55.4735 142.131 55.0212C141.678 54.5686 141.145 54.2194 140.533 53.973C139.92 53.7269 139.253 53.6038 138.531 53.6038C137.81 53.6038 137.14 53.7269 136.521 53.973C135.903 54.2194 135.367 54.5686 134.915 55.0212C134.462 55.4735 134.107 56.0005 133.85 56.6017C133.592 57.2029 133.463 57.8644 133.463 58.5861C133.463 59.2962 133.592 59.9546 133.85 60.5617C134.107 61.1687 134.462 61.6985 134.915 62.1511C135.367 62.6033 135.903 62.9528 136.521 63.1989C137.14 63.4451 137.81 63.5685 138.531 63.5685ZM147.689 64.5991V52.5728H148.736L154.234 61.9532H153.684L159.131 52.5728H160.179V64.5991H158.959V54.48H159.251L154.234 63.07H153.633L148.582 54.48H148.908V64.5991H147.689ZM164.096 64.5991V52.5728H165.144L170.641 61.9532H170.092L175.538 52.5728H176.586V64.5991H175.366V54.48H175.658L170.641 63.07H170.04L164.989 54.48H165.316V64.5991H164.096ZM181.637 57.9505H187.994V59.0329H181.637V57.9505ZM181.774 63.4995H189.007V64.5991H180.503V52.5728H188.75V53.6724H181.774V63.4995ZM191.997 64.5991V52.5728H196.498C197.517 52.5728 198.393 52.7362 199.127 53.0626C199.859 53.389 200.424 53.8585 200.819 54.4714C201.214 55.084 201.412 55.8258 201.412 56.6961C201.412 57.5438 201.214 58.2739 200.819 58.8867C200.424 59.4996 199.859 59.9691 199.127 60.2955C198.393 60.622 197.517 60.785 196.498 60.785H192.701L193.268 60.2011V64.5991H191.997ZM200.209 64.5991L197.116 60.2352H198.491L201.6 64.5991H200.209ZM193.268 60.3041L192.701 59.7027H196.464C197.666 59.7027 198.579 59.4393 199.204 58.9126C199.828 58.3855 200.14 57.6468 200.14 56.6961C200.14 55.7341 199.828 54.9895 199.204 54.4628C198.579 53.9358 197.666 53.6724 196.464 53.6724H192.701L193.268 53.0712V60.3041ZM209.641 64.7022C208.736 64.7022 207.9 64.5505 207.133 64.2469C206.365 63.9435 205.701 63.5168 205.14 62.967C204.578 62.4172 204.14 61.7702 203.825 61.0256C203.51 60.2811 203.353 59.4679 203.353 58.5861C203.353 57.7041 203.51 56.8909 203.825 56.1463C204.14 55.4018 204.581 54.7548 205.148 54.205C205.715 53.6552 206.382 53.2288 207.15 52.9251C207.917 52.6217 208.753 52.4697 209.658 52.4697C210.529 52.4697 211.347 52.6159 212.115 52.9079C212.882 53.1998 213.529 53.6379 214.056 54.2222L213.249 55.0298C212.756 54.5259 212.212 54.1622 211.616 53.9388C211.021 53.7155 210.38 53.6038 209.692 53.6038C208.971 53.6038 208.301 53.7269 207.682 53.973C207.064 54.2194 206.526 54.5686 206.067 55.0212C205.609 55.4735 205.251 56.0005 204.994 56.6017C204.736 57.2029 204.607 57.8644 204.607 58.5861C204.607 59.3076 204.736 59.9691 204.994 60.5703C205.251 61.1717 205.609 61.6985 206.067 62.1511C206.526 62.6033 207.064 62.9528 207.682 63.1989C208.301 63.4451 208.971 63.5685 209.692 63.5685C210.38 63.5685 211.021 63.4537 211.616 63.2248C212.212 62.9956 212.756 62.6292 213.249 62.1252L214.056 62.9325C213.529 63.5168 212.882 63.9577 212.115 64.2555C211.347 64.5533 210.523 64.7022 209.641 64.7022ZM217.905 57.9505H224.262V59.0329H217.905V57.9505ZM218.042 63.4995H225.275V64.5991H216.771V52.5728H225.017V53.6724H218.042V63.4995Z" fill="white"/>
<path d="M124.937 87.133C123.561 87.133 122.484 86.7494 121.708 85.9824C120.932 85.2156 120.544 84.1207 120.544 82.6977V77.2644H122.789V82.6143C122.789 83.5386 122.978 84.2037 123.357 84.6105C123.736 85.0169 124.267 85.2203 124.951 85.2203C125.635 85.2203 126.166 85.0169 126.545 84.6105C126.924 84.2037 127.113 83.5386 127.113 82.6143V77.2644H129.331V82.6977C129.331 84.1207 128.943 85.2156 128.167 85.9824C127.391 86.7494 126.314 87.133 124.937 87.133ZM130.925 86.9666V85.5113L136.926 78.2763L137.204 79.094H131.036V77.2644H139.199V78.7196L133.212 85.9547L132.934 85.1369H139.407V86.9666H130.925ZM140.849 86.9666V77.2644H145.589C146.809 77.2644 147.726 77.4954 148.341 77.9575C148.955 78.4193 149.262 79.0291 149.262 79.7869C149.262 80.2952 149.137 80.7364 148.888 81.1105C148.638 81.4849 148.297 81.7735 147.862 81.9769C147.428 82.1802 146.929 82.2818 146.365 82.2818L146.629 81.7135C147.238 81.7135 147.779 81.8129 148.25 82.0116C148.722 82.2101 149.089 82.5036 149.352 82.8915C149.615 83.2798 149.747 83.7555 149.747 84.3191C149.747 85.1507 149.419 85.7999 148.763 86.2666C148.107 86.7334 147.142 86.9666 145.866 86.9666H140.849ZM143.08 85.2757H145.7C146.282 85.2757 146.723 85.1809 147.024 84.9914C147.324 84.8021 147.474 84.4994 147.474 84.0838C147.474 83.677 147.324 83.3746 147.024 83.1758C146.723 82.9771 146.282 82.8777 145.7 82.8777H142.914V81.2422H145.312C145.857 81.2422 146.275 81.1477 146.566 80.9582C146.857 80.7687 147.003 80.4801 147.003 80.0918C147.003 79.7131 146.857 79.4288 146.566 79.2396C146.275 79.05 145.857 78.9553 145.312 78.9553H143.08V85.2757ZM153.517 81.1729H158.188V82.9192H153.517V81.1729ZM153.683 85.1649H158.964V86.9666H151.452V77.2644H158.784V79.0663H153.683V85.1649ZM162.762 84.7489L162.637 82.1572L167.281 77.2644H169.776L165.59 81.7689L164.342 83.0995L162.762 84.7489ZM160.752 86.9666V77.2644H162.984V86.9666H160.752ZM167.391 86.9666L163.94 82.7393L165.409 81.1452L170.011 86.9666H167.391ZM171.009 86.9666V77.2644H173.254V86.9666H171.009ZM178.743 87.133C177.967 87.133 177.223 87.029 176.512 86.8211C175.8 86.6131 175.227 86.3429 174.793 86.0104L175.555 84.3191C175.971 84.6151 176.463 84.8575 177.031 85.0471C177.599 85.2363 178.175 85.331 178.757 85.331C179.2 85.331 179.558 85.287 179.831 85.1994C180.104 85.1117 180.304 84.9892 180.434 84.832C180.563 84.6751 180.628 84.4948 180.628 84.2914C180.628 84.0327 180.526 83.8272 180.323 83.6749C180.12 83.5223 179.852 83.3977 179.519 83.3004C179.186 83.2035 178.819 83.1112 178.417 83.0232C178.015 82.9356 177.613 82.8269 177.212 82.6977C176.809 82.5682 176.442 82.4021 176.109 82.1987C175.777 81.9953 175.506 81.7273 175.299 81.3948C175.091 81.0622 174.987 80.637 174.987 80.1195C174.987 79.5651 175.137 79.0593 175.437 78.6018C175.737 78.1446 176.19 77.7794 176.796 77.5068C177.401 77.2342 178.161 77.0979 179.076 77.0979C179.685 77.0979 180.286 77.1696 180.877 77.313C181.469 77.456 181.991 77.6708 182.444 77.9575L181.751 79.6623C181.298 79.4035 180.845 79.2119 180.392 79.087C179.94 78.9624 179.496 78.8999 179.062 78.8999C178.627 78.8999 178.272 78.9507 177.995 79.0522C177.717 79.154 177.519 79.2857 177.399 79.4472C177.278 79.6091 177.218 79.7961 177.218 80.0087C177.218 80.2582 177.32 80.4591 177.523 80.6117C177.727 80.764 177.995 80.8865 178.327 80.9788C178.66 81.0714 179.027 81.1637 179.429 81.256C179.831 81.3486 180.233 81.4547 180.635 81.575C181.037 81.695 181.404 81.8569 181.737 82.0599C182.07 82.2633 182.34 82.5313 182.548 82.8639C182.756 83.1964 182.859 83.617 182.859 84.1253C182.859 84.6705 182.707 85.1695 182.402 85.6221C182.097 86.075 181.642 86.4399 181.037 86.7171C180.432 86.9943 179.667 87.133 178.743 87.133ZM186.269 86.9666V79.094H183.164V77.2644H191.619V79.094H188.514V86.9666H186.269ZM191.065 86.9666L195.389 77.2644H197.607L201.945 86.9666H199.589L196.04 78.4009H196.928L193.365 86.9666H191.065ZM193.227 84.8877L193.823 83.1826H198.812L199.422 84.8877H193.227ZM202.957 86.9666V77.2644H204.814L210.538 84.2499H209.637V77.2644H211.855V86.9666H210.012L204.273 79.981H205.174V86.9666H202.957Z" fill="white"/>
<path fill-rule="evenodd" clip-rule="evenodd" d="M119.365 71.0544H252V72.5343H119.365V71.0544Z" fill="white"/>
</svg>
