<svg width="252" height="101" viewBox="0 0 252 101" fill="none" xmlns="http://www.w3.org/2000/svg">
<path fill-rule="evenodd" clip-rule="evenodd" d="M0 50.1464L16.5964 33.5497C16.9493 36.1319 17.883 38.5351 19.2608 40.6226L9.7373 50.1464L15.1005 55.5096C13.7019 57.5162 12.6681 59.7941 12.0996 62.2459L0 50.1464ZM36.0338 14.1123L50.1461 0L64.2584 14.1123H54.5211L50.1461 9.7373L45.7711 14.1123H36.0338ZM83.696 33.55L100.292 50.1464L88.1929 62.2456C87.6243 59.7938 86.5909 57.5159 85.1919 55.5093L90.5551 50.1464L81.0317 40.6229C82.4094 38.5354 83.3431 36.1322 83.696 33.55ZM64.2584 86.1801L50.1461 100.292L36.0341 86.1801H45.7714L50.1461 90.5551L54.5207 86.1801H64.2584Z" fill="white"/>
<path d="M31.1396 49.2133H48.5654V84.0638H31.1406C21.5574 84.0638 13.715 76.2219 13.7148 66.639C13.7148 57.2057 21.314 49.4588 30.6924 49.2191L31.1396 49.2133Z" fill="#022038" stroke="white"/>
<path d="M69.1528 49.2133C78.7357 49.2134 86.5776 57.0561 86.5776 66.639C86.5775 76.2218 78.7356 84.0637 69.1528 84.0638H51.7271V49.2133H69.1528Z" fill="#022038" stroke="white"/>
<path d="M66.7329 16.2285C74.9844 16.2287 81.7378 22.9825 81.7378 31.2343C81.7375 39.4857 74.9843 46.239 66.7329 46.2392H51.7271V16.2285H66.7329Z" fill="#022038" stroke="white"/>
<path d="M48.5659 16.2285V31.2343C48.5657 39.4857 41.8124 46.239 33.561 46.2392C25.3092 46.2392 18.5554 39.4859 18.5552 31.2343V16.2285H48.5659Z" fill="#022038" stroke="white"/>
<path fill-rule="evenodd" clip-rule="evenodd" d="M59.7514 63.0108C59.617 63.0745 60.2418 63.7033 61.1107 63.6083C60.8753 63.0382 60.6901 62.0539 61.2088 61.3208C60.3646 60.3599 60.451 58.5687 60.4929 58.0472C60.5406 57.451 60.8267 57.4091 60.9365 56.5387C61.0464 55.6687 60.1935 55.0623 60.1935 55.0623C60.1935 55.0623 60.2163 56.04 60.0572 56.3015C60.0572 56.3015 59.4204 56.2101 59.3296 55.8465C59.3296 55.8465 59.4773 57.7565 59.2727 57.9611C59.2727 57.9611 58.7269 58.2229 58.4198 57.7682C58.4198 57.7682 58.3405 58.689 58.7155 59.0641C58.7155 59.0641 58.5223 59.6554 58.1359 59.4505C58.1359 59.4505 58.3743 60.2009 58.9429 60.2464C58.9429 60.2464 59.025 60.7156 58.5094 60.6728C58.5094 60.6728 58.5955 61.4035 59.2487 61.4463C59.2487 61.4463 59.5151 61.8678 59.0853 61.9364C59.0853 61.9364 59.3176 62.5382 60.0225 62.4955C60.0225 62.4955 59.8932 62.9434 59.7514 63.0108ZM71.0683 68.3103C71.0683 68.3103 72.4811 67.7771 72.2032 66.74C71.9254 65.7032 70.5708 64.6725 70.5708 62.4647C70.5708 60.2569 72.9481 57.2424 75.7002 57.1178C75.7002 57.1178 76.4466 57.1175 76.2287 57.5374C76.0109 57.9571 74.643 58.4392 75.0162 58.4859C75.3891 58.5324 76.4619 58.3306 76.1977 58.6881C75.9334 59.0456 75.0162 59.9163 73.5545 58.9524C73.5545 58.9524 71.2535 60.196 71.2535 62.4816C71.2535 64.7672 72.8703 65.5601 72.8703 66.975C72.8703 68.39 71.1446 69.2453 71.1446 69.2453C71.1446 69.2453 71.8734 73.1336 74.8612 73.12C74.8612 73.12 73.6443 75.3374 75.0774 76.4053C75.0774 76.4053 74.6184 76.621 74.496 76.5598C74.496 76.5598 74.7209 77.3572 74.9458 77.6027L74.4243 77.388C74.4243 77.388 74.404 77.9504 74.6083 78.2876L74.0461 78.0424C74.0461 78.0424 74.0252 79.525 74.3221 79.9031C74.3221 79.9031 73.7086 79.9542 73.5554 79.5146C73.5554 79.5146 72.666 81.0175 71.2959 81.263L71.2449 80.5985L70.3246 80.5369C70.3246 80.5369 72.3937 78.2485 72.3937 76.4145C72.3937 74.5802 70.1874 73.1847 69.4032 73.0385C68.6192 72.8924 68.0344 70.8984 67.8882 70.1145C67.7421 69.3302 66.1868 67.7485 65.0039 67.4695C63.8209 67.1904 63.4578 66.8748 63.6892 66.6234C63.9203 66.372 64.4531 65.8893 64.4833 65.206C64.5134 64.5223 65.2371 64.1002 65.2371 64.1002C65.2371 64.1002 64.5233 64.1304 64.0609 65.1155C63.5988 66.1007 63.0662 66.6935 62.6035 66.6634C62.141 66.6332 62.3186 66.412 62.3186 66.412C62.3186 66.412 61.8414 67.1046 61.5319 67.1649C61.5319 67.1649 61.6531 66.728 61.5992 66.4256C61.5992 66.4256 60.5904 67.1984 60.4157 67.2658C60.4157 67.2658 60.4627 66.8963 60.3889 66.6809C60.3889 66.6809 59.6628 67.4809 59.3133 67.5079C59.3133 67.5079 59.4339 67.1581 59.3804 66.8892C59.3804 66.8892 58.6407 67.3599 57.9885 67.3467C57.9885 67.3467 58.3918 66.7483 58.2306 66.2976C58.2306 66.2976 57.1916 67.0471 55.936 66.2733C55.936 66.2733 56.6311 65.8136 56.8104 65.365C56.8104 65.365 55.5099 65.298 55.2856 64.9838C55.2856 64.9838 57.0012 63.7621 58.0888 64.5916C59.1764 65.4213 59.6363 65.6567 60.3314 64.9728C61.0264 64.2888 61.5248 64.4897 61.2445 63.8778C60.9645 63.2658 60.7024 62.0327 61.5149 61.2525C61.5149 61.2525 61.5042 62.824 61.8891 63.2729C61.8891 63.2729 61.7928 60.8141 62.5733 60.5252C62.5733 60.5252 62.4881 61.5623 62.6911 61.9152C62.6911 61.9152 63.0284 59.8978 64.203 59.8978C65.378 59.8978 66.0542 59.285 65.7413 58.9505C65.4284 58.6158 64.7737 58.5718 64.9626 58.2952C65.1519 58.0189 65.7995 58.4555 66.0106 58.31C66.2216 58.1644 66.1853 57.6842 65.2903 57.786C64.3953 57.8878 63.1219 58.0918 63.1074 56.7018C63.0926 55.3121 63.6166 56.1489 63.7477 56.4837C63.8787 56.8184 64.2061 57.4731 65.2029 57.4731C66.1998 57.4731 66.3671 57.9023 66.3671 57.9023C66.3671 57.9023 66.7456 57.1095 65.7924 57.1165C64.8393 57.1239 64.8211 56.82 64.8122 56.2037C64.8036 55.5874 65.2611 55.3235 65.7543 55.3059C66.2475 55.2884 66.0721 55.756 66.3182 55.8493C66.5647 55.9425 66.4514 56.2086 66.5847 56.1686C66.7179 56.1286 66.5514 55.9154 66.8575 55.9289C67.164 55.9425 67.5101 55.6693 67.1572 55.6093C66.8043 55.5496 66.4117 55.6228 66.3982 55.3232C66.385 55.0235 67.3237 54.9103 67.9495 55.4496C68.5752 55.9889 68.5116 56.1603 68.6679 56.0619C68.8241 55.9631 69.2007 55.4422 69.27 55.8763C69.3395 56.3108 69.238 56.3295 69.3124 56.7452C69.3872 57.1605 69.8837 58.6635 69.4949 59.9437C69.106 61.2239 68.5362 61.3109 68.4873 62.2785C68.4383 63.2465 68.7688 63.4427 68.622 64.0919C68.4753 64.7414 67.8698 65.7192 67.4009 65.8899C67.4009 65.8899 67.9667 66.0321 68.1439 65.6776C68.1439 65.6776 69.0383 66.5634 69.3041 66.6763C69.5699 66.7892 70.3514 67.168 71.0683 68.3103ZM67.7147 63.5501C67.7147 63.5501 67.1535 64.1947 67.0855 64.8768C67.0172 65.5589 66.7972 66.332 65.774 66.3926C65.774 66.3926 66.6077 66.1653 66.7745 64.8768C66.9412 63.588 67.7147 63.5501 67.7147 63.5501ZM66.5748 63.5501C66.5748 63.5501 66.0136 64.1947 65.9456 64.8768C65.8773 65.5589 65.6573 66.332 64.634 66.3926C64.634 66.3926 65.4678 66.1653 65.6346 64.8768C65.8013 63.588 66.5748 63.5501 66.5748 63.5501ZM65.4303 69.2241C65.1995 69.7819 64.2658 74.2458 61.9731 74.1852C59.6806 74.1246 58.7346 72.693 58.7346 72.693C58.7346 72.693 58.4681 73.5908 58.8804 74.003C58.8804 74.003 58.1768 74.2578 57.7279 74.2095C57.7279 74.2095 58.8558 75.6281 59.8868 75.3737C59.8868 75.3737 60.3089 75.7854 59.8779 76.1798C59.8779 76.1798 60.7313 76.537 61.3823 75.9595C61.3823 75.9595 61.8503 76.2807 61.6666 76.6933C61.6666 76.6933 62.7121 76.5465 63.0148 75.6934C63.0148 75.6934 63.5194 75.941 63.4462 76.2622C63.4462 76.2622 63.7855 75.7211 63.8221 75.29C63.8221 75.29 64.3818 75.3998 64.3818 75.7484C64.3818 75.7484 65.3943 72.8948 68.53 72.5401C68.0993 71.8497 67.7962 70.7547 67.6966 70.2206C67.6255 69.8379 67.2181 69.265 66.6825 68.7463C66.2127 68.7758 65.5724 68.8798 65.4303 69.2241Z" fill="white"/>
<path fill-rule="evenodd" clip-rule="evenodd" d="M65.7833 24.7009L65.3538 23.9573L64.9246 23.2137H65.7833H66.6417L66.2125 23.9573L65.7833 24.7009ZM65.4246 25.0476L64.681 25.4771L63.9373 25.9063V25.0476V24.1893L64.681 24.6184L65.4246 25.0476ZM66.1301 25.0593L66.8737 24.6301L67.6173 24.2009V25.0593V25.918L66.8737 25.4888L66.1301 25.0593ZM65.7775 27.6462C66.354 27.6462 66.8214 27.1788 66.8214 26.6023C66.8214 26.0254 66.354 25.5581 65.7775 25.5581C65.2006 25.5581 64.7333 26.0254 64.7333 26.6023C64.7333 27.1788 65.2006 27.6462 65.7775 27.6462ZM65.1077 34.8256L62.91 34.82C62.91 34.82 63.3758 33.9038 62.3442 33.6275C61.3123 33.3509 61.0345 31.7981 61.0345 31.3868C61.0345 30.9754 60.9841 29.0956 62.6458 29.0956C64.3075 29.0956 65.1034 30.8828 65.2812 31.5465C65.4587 32.2101 65.2135 32.83 65.2135 32.83C65.2135 32.83 64.4108 32.9423 64.4108 33.6327C64.4108 34.3231 65.3252 34.2718 65.3252 34.2718V34.4994C65.1366 34.4994 65.1077 34.8256 65.1077 34.8256ZM66.447 34.8256L68.6449 34.82C68.6449 34.82 68.1788 33.9038 69.2107 33.6275C70.2423 33.3509 70.5204 31.7981 70.5204 31.3868C70.5204 30.9754 70.5706 29.0956 68.9089 29.0956C67.2475 29.0956 66.4516 30.8828 66.2737 31.5465C66.0959 32.2101 66.3411 32.83 66.3411 32.83C66.3411 32.83 67.1438 32.9423 67.1438 33.6327C67.1438 34.3231 66.2297 34.2718 66.2297 34.2718V34.4994C66.418 34.4994 66.447 34.8256 66.447 34.8256ZM74.4687 31.4151C74.4687 34.1696 71.7591 35.6855 71.7591 35.6855C71.7591 35.6855 71.6136 37.4727 71.3004 38.0151H65.7775H60.2543C59.9411 37.4727 59.7955 35.6855 59.7955 35.6855C59.7955 35.6855 57.0859 34.1696 57.0859 31.4151C57.0859 28.6606 60.0608 29.5236 60.0608 29.5236C60.0608 29.5236 60.3364 27.5585 62.503 27.5585C64.0896 27.5585 65.2628 29.2614 65.7775 30.174C66.2919 29.2614 67.465 27.5585 69.0517 27.5585C71.2185 27.5585 71.4939 29.5236 71.4939 29.5236C71.4939 29.5236 74.4687 28.6606 74.4687 31.4151ZM70.6878 37.2121C70.7817 37.2503 70.8887 37.2053 70.9266 37.1115C70.9647 37.018 70.9198 36.9109 70.826 36.8728C69.1283 36.1454 62.4264 36.1454 60.7287 36.8728C60.6349 36.9109 60.5899 37.018 60.6281 37.1115C60.6659 37.2053 60.773 37.2503 60.8668 37.2121C62.6134 36.5137 68.9415 36.5137 70.6878 37.2121ZM70.665 33.4524C70.665 33.4524 71.4933 34.3964 70.4152 34.9056C71.8726 35.2551 73.3304 33.6081 73.3304 32.1406C73.3304 30.673 71.6114 30.7419 71.6114 30.7419C71.6114 30.7419 71.8486 32.7691 70.665 33.4524ZM60.8896 33.4524C60.8896 33.4524 60.0614 34.3964 61.1394 34.9056C59.682 35.2551 58.2246 33.6081 58.2246 32.1406C58.2246 30.673 59.9432 30.7419 59.9432 30.7419C59.9432 30.7419 59.706 32.7691 60.8896 33.4524Z" fill="white"/>
<path d="M120.646 28.0861V16.0598H126.522C128.034 16.0598 129.171 16.3463 129.932 16.9188C130.694 17.4917 131.075 18.2476 131.075 19.1866C131.075 19.8167 130.92 20.3634 130.611 20.8274C130.302 21.2914 129.878 21.6492 129.34 21.9012C128.801 22.1531 128.183 22.2793 127.484 22.2793L127.811 21.5747C128.567 21.5747 129.236 21.6978 129.821 21.9442C130.405 22.1904 130.86 22.554 131.186 23.0352C131.513 23.5161 131.676 24.1062 131.676 24.8046C131.676 25.8356 131.27 26.6401 130.456 27.2185C129.643 27.7969 128.446 28.0861 126.866 28.0861H120.646ZM123.412 25.99H126.659C127.381 25.99 127.928 25.8728 128.3 25.6381C128.673 25.403 128.859 25.0279 128.859 24.5126C128.859 24.0087 128.673 23.6336 128.3 23.3872C127.928 23.141 127.381 23.018 126.659 23.018H123.206V20.9908H126.179C126.854 20.9908 127.373 20.8732 127.733 20.6385C128.094 20.4037 128.274 20.0456 128.274 19.5647C128.274 19.0952 128.094 18.743 127.733 18.5082C127.373 18.2732 126.854 18.1559 126.179 18.1559H123.412V25.99ZM136.349 20.9046H142.139V23.0694H136.349V20.9046ZM136.555 25.8528H143.101V28.0861H133.789V16.0598H142.878V18.2935H136.555V25.8528ZM145.317 28.0861V16.0598H147.619L154.715 24.7188H153.598V16.0598H156.347V28.0861H154.062L146.949 19.4272H148.066V28.0861H145.317ZM161.759 20.9046H167.549V23.0694H161.759V20.9046ZM161.965 25.8528H168.511V28.0861H159.199V16.0598H168.288V18.2935H161.965V25.8528ZM170.727 28.0861V16.0598H173.51V25.8183H179.54V28.0861H170.727ZM186.292 28.2923C184.585 28.2923 183.251 27.8169 182.289 26.8662C181.327 25.9156 180.846 24.5585 180.846 22.7946V16.0598H183.629V22.6915C183.629 23.837 183.864 24.6615 184.333 25.1655C184.803 25.6694 185.462 25.9214 186.309 25.9214C187.157 25.9214 187.816 25.6694 188.285 25.1655C188.755 24.6615 188.989 23.837 188.989 22.6915V16.0598H191.738V22.7946C191.738 24.5585 191.257 25.9156 190.295 26.8662C189.333 27.8169 187.999 28.2923 186.292 28.2923ZM192.941 28.0861L198.112 20.9563V22.9835L193.164 16.0598H196.325L199.744 20.8877L198.421 20.9046L201.789 16.0598H204.813L199.899 22.8632V20.8705L205.105 28.0861H201.892L198.353 22.9835H199.624L196.136 28.0861H192.941Z" fill="white"/>
<path d="M126.402 46.2645C125.497 46.2645 124.661 46.1129 123.894 45.8092C123.127 45.5058 122.462 45.0791 121.901 44.5293C121.34 43.9795 120.902 43.3325 120.587 42.5879C120.272 41.8434 120.114 41.0302 120.114 40.1485C120.114 39.2664 120.272 38.4532 120.587 37.7087C120.902 36.9641 121.342 36.3171 121.909 35.7673C122.477 35.2175 123.144 34.7911 123.911 34.4874C124.678 34.1841 125.514 34.0321 126.419 34.0321C127.29 34.0321 128.109 34.1782 128.876 34.4702C129.644 34.7622 130.291 35.2003 130.818 35.7845L130.01 36.5922C129.517 36.0882 128.973 35.7245 128.378 35.5012C127.782 35.2778 127.141 35.1661 126.454 35.1661C125.732 35.1661 125.062 35.2892 124.444 35.5353C123.825 35.7818 123.287 36.131 122.829 36.5835C122.371 37.0358 122.013 37.5628 121.755 38.164C121.497 38.7652 121.368 39.4267 121.368 40.1485C121.368 40.8699 121.497 41.5314 121.755 42.1326C122.013 42.7341 122.371 43.2608 122.829 43.7134C123.287 44.1656 123.825 44.5152 124.444 44.7613C125.062 45.0074 125.732 45.1308 126.454 45.1308C127.141 45.1308 127.782 45.016 128.378 44.7871C128.973 44.5579 129.517 44.1915 130.01 43.6875L130.818 44.4948C130.291 45.0791 129.644 45.52 128.876 45.8178C128.109 46.1156 127.284 46.2645 126.402 46.2645ZM142.328 34.1351H143.583V46.1615H142.328V34.1351ZM134.803 46.1615H133.532V34.1351H134.803V46.1615ZM142.449 40.6121H134.666V39.4956H142.449V40.6121ZM145.576 46.1615L151.073 34.1351H152.327L157.825 46.1615H156.485L151.434 34.8738H151.95L146.898 46.1615H145.576ZM147.74 42.9488L148.118 41.9178H155.111L155.489 42.9488H147.74ZM159.818 46.1615V34.1351H160.866L166.364 43.5155H165.814L171.26 34.1351H172.308V46.1615H171.089V36.0424H171.381L166.364 44.6324H165.763L160.712 36.0424H161.038V46.1615H159.818ZM176.225 46.1615V34.1351H181.414C182.754 34.1351 183.793 34.4044 184.532 34.9428C185.271 35.4812 185.64 36.2427 185.64 37.2278C185.64 37.8807 185.488 38.4304 185.185 38.8769C184.881 39.3236 184.469 39.6614 183.948 39.8906C183.427 40.1198 182.857 40.2343 182.238 40.2343L182.531 39.822C183.298 39.822 183.959 39.9392 184.515 40.174C185.07 40.409 185.503 40.7583 185.812 41.2222C186.121 41.6859 186.276 42.2615 186.276 42.9488C186.276 43.9681 185.901 44.7585 185.15 45.3197C184.4 45.8809 183.269 46.1615 181.757 46.1615H176.225ZM177.497 45.1136H181.74C182.794 45.1136 183.601 44.933 184.162 44.5724C184.724 44.2115 185.005 43.6358 185.005 42.8458C185.005 42.0667 184.724 41.497 184.162 41.1364C183.601 40.7755 182.794 40.5952 181.74 40.5952H177.359V39.547H181.328C182.29 39.547 183.037 39.3639 183.57 38.9972C184.102 38.6307 184.369 38.0868 184.369 37.365C184.369 36.6322 184.102 36.0851 183.57 35.7245C183.037 35.3636 182.29 35.1834 181.328 35.1834H177.497V45.1136ZM190.313 39.5128H196.67V40.5952H190.313V39.5128ZM190.451 45.0619H197.683V46.1615H189.179V34.1351H197.426V35.2347H190.451V45.0619ZM200.673 46.1615V34.1351H205.174C206.193 34.1351 207.07 34.2985 207.803 34.6249C208.536 34.9514 209.1 35.4209 209.495 36.0337C209.89 36.6463 210.088 37.3881 210.088 38.2585C210.088 39.1061 209.89 39.8362 209.495 40.449C209.1 41.0619 208.536 41.5314 207.803 41.8578C207.07 42.1843 206.193 42.3473 205.174 42.3473H201.377L201.944 41.7634V46.1615H200.673ZM208.885 46.1615L205.793 41.7975H207.167L210.277 46.1615H208.885ZM201.944 41.8665L201.377 41.265H205.14C206.342 41.265 207.256 41.0016 207.88 40.4749C208.504 39.9479 208.817 39.2092 208.817 38.2585C208.817 37.2964 208.504 36.5518 207.88 36.0251C207.256 35.4981 206.342 35.2347 205.14 35.2347H201.377L201.944 34.6336V41.8665ZM222.853 46.2645C221.948 46.2645 221.109 46.1129 220.336 45.8092C219.563 45.5058 218.893 45.0763 218.326 44.5207C217.759 43.9654 217.318 43.318 217.003 42.5793C216.688 41.8406 216.53 41.0302 216.53 40.1485C216.53 39.2664 216.688 38.456 217.003 37.7173C217.318 36.9786 217.759 36.3316 218.326 35.7759C218.893 35.2206 219.56 34.7911 220.327 34.4874C221.095 34.1841 221.936 34.0321 222.853 34.0321C223.757 34.0321 224.594 34.1841 225.361 34.4874C226.128 34.7911 226.796 35.2175 227.362 35.7673C227.929 36.3171 228.37 36.9641 228.685 37.7087C229 38.4532 229.158 39.2664 229.158 40.1485C229.158 41.0302 229 41.8434 228.685 42.5879C228.37 43.3325 227.929 43.9795 227.362 44.5293C226.796 45.0791 226.128 45.5058 225.361 45.8092C224.594 46.1129 223.757 46.2645 222.853 46.2645ZM222.853 45.1308C223.574 45.1308 224.241 45.0074 224.854 44.7613C225.467 44.5152 225.999 44.1656 226.452 43.7134C226.904 43.2608 227.257 42.7341 227.509 42.1326C227.76 41.5314 227.887 40.8699 227.887 40.1485C227.887 39.4267 227.76 38.7652 227.509 38.164C227.257 37.5628 226.904 37.0358 226.452 36.5835C225.999 36.131 225.467 35.7818 224.854 35.5353C224.241 35.2892 223.574 35.1661 222.853 35.1661C222.131 35.1661 221.461 35.2892 220.843 35.5353C220.224 35.7818 219.689 36.131 219.236 36.5835C218.784 37.0358 218.429 37.5628 218.171 38.164C217.913 38.7652 217.784 39.4267 217.784 40.1485C217.784 40.8585 217.913 41.5169 218.171 42.124C218.429 42.731 218.784 43.2608 219.236 43.7134C219.689 44.1656 220.224 44.5152 220.843 44.7613C221.461 45.0074 222.131 45.1308 222.853 45.1308ZM233.144 39.9592H239.501V41.0588H233.144V39.9592ZM233.281 46.1615H232.01V34.1351H240.257V35.2347H233.281V46.1615ZM126.402 64.7023C125.497 64.7023 124.661 64.5506 123.894 64.247C123.127 63.9436 122.462 63.5169 121.901 62.9671C121.34 62.4173 120.902 61.7703 120.587 61.0257C120.272 60.2812 120.114 59.468 120.114 58.5862C120.114 57.7041 120.272 56.891 120.587 56.1464C120.902 55.4019 121.342 54.7549 121.909 54.2051C122.477 53.6553 123.144 53.2289 123.911 52.9252C124.678 52.6218 125.514 52.4698 126.419 52.4698C127.29 52.4698 128.109 52.616 128.876 52.908C129.644 53.1999 130.291 53.638 130.818 54.2223L130.01 55.0299C129.517 54.526 128.973 54.1623 128.378 53.9389C127.782 53.7156 127.141 53.6039 126.454 53.6039C125.732 53.6039 125.062 53.727 124.444 53.9731C123.825 54.2195 123.287 54.5687 122.829 55.0213C122.371 55.4736 122.013 56.0006 121.755 56.6018C121.497 57.203 121.368 57.8644 121.368 58.5862C121.368 59.3077 121.497 59.9692 121.755 60.5704C122.013 61.1718 122.371 61.6986 122.829 62.1511C123.287 62.6034 123.825 62.9529 124.444 63.199C125.062 63.4452 125.732 63.5686 126.454 63.5686C127.141 63.5686 127.782 63.4538 128.378 63.2249C128.973 62.9957 129.517 62.6292 130.01 62.1253L130.818 62.9326C130.291 63.5169 129.644 63.9578 128.876 64.2556C128.109 64.5534 127.284 64.7023 126.402 64.7023ZM138.531 64.7023C137.627 64.7023 136.788 64.5506 136.015 64.247C135.242 63.9436 134.571 63.5141 134.004 62.9585C133.437 62.4031 132.997 61.7558 132.681 61.0171C132.367 60.2784 132.209 59.468 132.209 58.5862C132.209 57.7041 132.367 56.8938 132.681 56.1551C132.997 55.4163 133.437 54.7693 134.004 54.2137C134.571 53.6583 135.238 53.2289 136.006 52.9252C136.773 52.6218 137.615 52.4698 138.531 52.4698C139.436 52.4698 140.272 52.6218 141.04 52.9252C141.807 53.2289 142.474 53.6553 143.041 54.2051C143.608 54.7549 144.049 55.4019 144.364 56.1464C144.679 56.891 144.837 57.7041 144.837 58.5862C144.837 59.468 144.679 60.2812 144.364 61.0257C144.049 61.7703 143.608 62.4173 143.041 62.9671C142.474 63.5169 141.807 63.9436 141.04 64.247C140.272 64.5506 139.436 64.7023 138.531 64.7023ZM138.531 63.5686C139.253 63.5686 139.92 63.4452 140.533 63.199C141.146 62.9529 141.678 62.6034 142.131 62.1511C142.583 61.6986 142.935 61.1718 143.187 60.5704C143.439 59.9692 143.565 59.3077 143.565 58.5862C143.565 57.8644 143.439 57.203 143.187 56.6018C142.935 56.0006 142.583 55.4736 142.131 55.0213C141.678 54.5687 141.146 54.2195 140.533 53.9731C139.92 53.727 139.253 53.6039 138.531 53.6039C137.81 53.6039 137.14 53.727 136.521 53.9731C135.903 54.2195 135.367 54.5687 134.915 55.0213C134.463 55.4736 134.107 56.0006 133.85 56.6018C133.592 57.203 133.463 57.8644 133.463 58.5862C133.463 59.2963 133.592 59.9547 133.85 60.5617C134.107 61.1688 134.463 61.6986 134.915 62.1511C135.367 62.6034 135.903 62.9529 136.521 63.199C137.14 63.4452 137.81 63.5686 138.531 63.5686ZM147.689 64.5992V52.5729H148.737L154.234 61.9533H153.685L159.131 52.5729H160.179V64.5992H158.959V54.4801H159.251L154.234 63.0701H153.633L148.582 54.4801H148.909V64.5992H147.689ZM164.096 64.5992V52.5729H165.144L170.642 61.9533H170.092L175.538 52.5729H176.586V64.5992H175.366V54.4801H175.658L170.642 63.0701H170.04L164.989 54.4801H165.316V64.5992H164.096ZM181.637 57.9506H187.994V59.033H181.637V57.9506ZM181.774 63.4996H189.007V64.5992H180.503V52.5729H188.75V53.6725H181.774V63.4996ZM191.997 64.5992V52.5729H196.498C197.517 52.5729 198.394 52.7363 199.127 53.0627C199.86 53.3891 200.424 53.8586 200.819 54.4715C201.214 55.0841 201.412 55.8258 201.412 56.6962C201.412 57.5439 201.214 58.2739 200.819 58.8868C200.424 59.4997 199.86 59.9692 199.127 60.2956C198.394 60.622 197.517 60.7851 196.498 60.7851H192.701L193.268 60.2012V64.5992H191.997ZM200.209 64.5992L197.116 60.2353H198.491L201.601 64.5992H200.209ZM193.268 60.3042L192.701 59.7027H196.464C197.666 59.7027 198.58 59.4394 199.204 58.9127C199.828 58.3856 200.14 57.6469 200.14 56.6962C200.14 55.7342 199.828 54.9896 199.204 54.4629C198.58 53.9359 197.666 53.6725 196.464 53.6725H192.701L193.268 53.0713V60.3042ZM209.641 64.7023C208.736 64.7023 207.9 64.5506 207.133 64.247C206.365 63.9436 205.701 63.5169 205.14 62.9671C204.579 62.4173 204.14 61.7703 203.825 61.0257C203.511 60.2812 203.353 59.468 203.353 58.5862C203.353 57.7041 203.511 56.891 203.825 56.1464C204.14 55.4019 204.581 54.7549 205.148 54.2051C205.715 53.6553 206.382 53.2289 207.15 52.9252C207.917 52.6218 208.753 52.4698 209.658 52.4698C210.529 52.4698 211.347 52.616 212.115 52.908C212.882 53.1999 213.529 53.638 214.056 54.2223L213.249 55.0299C212.756 54.526 212.212 54.1623 211.617 53.9389C211.021 53.7156 210.38 53.6039 209.693 53.6039C208.971 53.6039 208.301 53.727 207.683 53.9731C207.064 54.2195 206.526 54.5687 206.068 55.0213C205.61 55.4736 205.251 56.0006 204.994 56.6018C204.736 57.203 204.607 57.8644 204.607 58.5862C204.607 59.3077 204.736 59.9692 204.994 60.5704C205.251 61.1718 205.61 61.6986 206.068 62.1511C206.526 62.6034 207.064 62.9529 207.683 63.199C208.301 63.4452 208.971 63.5686 209.693 63.5686C210.38 63.5686 211.021 63.4538 211.617 63.2249C212.212 62.9957 212.756 62.6292 213.249 62.1253L214.056 62.9326C213.529 63.5169 212.882 63.9578 212.115 64.2556C211.347 64.5534 210.523 64.7023 209.641 64.7023ZM217.905 57.9506H224.262V59.033H217.905V57.9506ZM218.042 63.4996H225.275V64.5992H216.771V52.5729H225.018V53.6725H218.042V63.4996Z" fill="white"/>
<path d="M124.937 87.133C123.56 87.133 122.484 86.7493 121.708 85.9823C120.931 85.2156 120.543 84.1206 120.543 82.6977V77.2643H122.789V82.6143C122.789 83.5385 122.978 84.2037 123.357 84.6104C123.736 85.0168 124.267 85.2202 124.951 85.2202C125.635 85.2202 126.166 85.0168 126.545 84.6104C126.924 84.2037 127.113 83.5385 127.113 82.6143V77.2643H129.331V82.6977C129.331 84.1206 128.943 85.2156 128.166 85.9823C127.391 86.7493 126.314 87.133 124.937 87.133ZM130.925 86.9665V85.5113L136.926 78.2762L137.204 79.094H131.035V77.2643H139.199V78.7195L133.212 85.9546L132.934 85.1368H139.407V86.9665H130.925ZM140.849 86.9665V77.2643H145.589C146.809 77.2643 147.726 77.4954 148.34 77.9575C148.955 78.4193 149.262 79.0291 149.262 79.7868C149.262 80.2951 149.137 80.7363 148.888 81.1104C148.638 81.4849 148.296 81.7734 147.862 81.9768C147.428 82.1802 146.929 82.2817 146.365 82.2817L146.629 81.7134C147.238 81.7134 147.779 81.8128 148.25 82.0116C148.722 82.21 149.089 82.5035 149.352 82.8915C149.615 83.2798 149.747 83.7554 149.747 84.3191C149.747 85.1507 149.419 85.7999 148.763 86.2666C148.107 86.7333 147.141 86.9665 145.866 86.9665H140.849ZM143.08 85.2756H145.7C146.282 85.2756 146.723 85.1808 147.024 84.9913C147.324 84.8021 147.474 84.4993 147.474 84.0837C147.474 83.677 147.324 83.3745 147.024 83.1758C146.723 82.977 146.282 82.8777 145.7 82.8777H142.914V81.2421H145.312C145.857 81.2421 146.275 81.1476 146.566 80.9581C146.857 80.7686 147.003 80.48 147.003 80.0917C147.003 79.713 146.857 79.4287 146.566 79.2395C146.275 79.05 145.857 78.9552 145.312 78.9552H143.08V85.2756ZM153.517 81.1729H158.188V82.9192H153.517V81.1729ZM153.683 85.1648H158.964V86.9665H151.452V77.2643H158.784V79.0663H153.683V85.1648ZM162.762 84.7489L162.637 82.1571L167.281 77.2643H169.775L165.59 81.7688L164.342 83.0995L162.762 84.7489ZM160.752 86.9665V77.2643H162.984V86.9665H160.752ZM167.391 86.9665L163.94 82.7392L165.409 81.1452L170.011 86.9665H167.391ZM171.009 86.9665V77.2643H173.254V86.9665H171.009ZM178.743 87.133C177.967 87.133 177.223 87.029 176.511 86.821C175.8 86.613 175.227 86.3429 174.793 86.0103L175.555 84.3191C175.971 84.615 176.463 84.8575 177.031 85.047C177.599 85.2362 178.175 85.331 178.757 85.331C179.2 85.331 179.558 85.287 179.831 85.1993C180.103 85.1116 180.304 84.9892 180.434 84.8319C180.563 84.675 180.628 84.4947 180.628 84.2914C180.628 84.0326 180.526 83.8271 180.323 83.6748C180.12 83.5222 179.852 83.3976 179.519 83.3004C179.186 83.2035 178.819 83.1112 178.417 83.0232C178.015 82.9355 177.613 82.8269 177.211 82.6977C176.809 82.5681 176.442 82.402 176.109 82.1986C175.777 81.9953 175.506 81.7273 175.299 81.3947C175.091 81.0621 174.987 80.6369 174.987 80.1194C174.987 79.565 175.137 79.0592 175.437 78.6017C175.737 78.1445 176.19 77.7793 176.795 77.5067C177.401 77.2341 178.161 77.0978 179.076 77.0978C179.685 77.0978 180.286 77.1695 180.877 77.3129C181.469 77.456 181.991 77.6707 182.444 77.9575L181.75 79.6622C181.298 79.4035 180.845 79.2118 180.392 79.0869C179.939 78.9623 179.496 78.8998 179.062 78.8998C178.627 78.8998 178.272 78.9506 177.994 79.0521C177.717 79.154 177.518 79.2857 177.398 79.4472C177.278 79.609 177.218 79.7961 177.218 80.0087C177.218 80.2582 177.32 80.4591 177.523 80.6117C177.726 80.764 177.994 80.8864 178.327 80.9787C178.66 81.0713 179.027 81.1636 179.429 81.2559C179.831 81.3486 180.233 81.4547 180.635 81.575C181.037 81.695 181.404 81.8568 181.737 82.0599C182.069 82.2632 182.34 82.5312 182.548 82.8638C182.756 83.1964 182.859 83.617 182.859 84.1252C182.859 84.6704 182.707 85.1694 182.402 85.622C182.097 86.0749 181.642 86.4398 181.037 86.717C180.431 86.9942 179.667 87.133 178.743 87.133ZM186.269 86.9665V79.094H183.164V77.2643H191.619V79.094H188.514V86.9665H186.269ZM191.065 86.9665L195.389 77.2643H197.607L201.945 86.9665H199.589L196.04 78.4008H196.928L193.365 86.9665H191.065ZM193.227 84.8876L193.823 83.1825H198.812L199.422 84.8876H193.227ZM202.957 86.9665V77.2643H204.814L210.538 84.2498H209.637V77.2643H211.855V86.9665H210.012L204.273 79.981H205.174V86.9665H202.957Z" fill="white"/>
<path fill-rule="evenodd" clip-rule="evenodd" d="M119.365 71.0544H252V72.5343H119.365V71.0544Z" fill="white"/>
</svg>
