<svg width="32" height="23" viewBox="0 0 32 23" fill="none" xmlns="http://www.w3.org/2000/svg">
<g clip-path="url(#clip0_41_28)">
<rect width="32" height="23" fill="#DEDEDE"/>
<path fill-rule="evenodd" clip-rule="evenodd" d="M0 -1V23H32V-1H0Z" fill="#2E42A5"/>
<mask id="mask0_41_28" style="mask-type:luminance" maskUnits="userSpaceOnUse" x="0" y="-1" width="32" height="24">
<path fill-rule="evenodd" clip-rule="evenodd" d="M0 -1V23H32V-1H0Z" fill="white"/>
</mask>
<g mask="url(#mask0_41_28)">
<path d="M-3.563 21.285L3.479 24.264L32.159 2.238L35.874 -2.188L28.344 -3.183L16.646 6.308L7.23 12.704L-3.563 21.285Z" fill="white"/>
<path d="M-2.6 23.372L0.989 25.1L34.54 -2.599H29.503L-2.6 23.372Z" fill="#F50100"/>
<path d="M35.563 21.285L28.521 24.264L-0.159 2.238L-3.874 -2.188L3.656 -3.183L15.354 6.308L24.77 12.704L35.563 21.285Z" fill="white"/>
<path d="M35.323 22.783L31.735 24.511L17.449 12.651L13.213 11.327L-4.232 -2.173H0.806L18.24 11.007L22.871 12.595L35.323 22.783Z" fill="#F50100"/>
<path fill-rule="evenodd" clip-rule="evenodd" d="M19.778 -3H12.222V7H-1.972V15H12.222V25H19.778V15H34.028V7H19.778V-3Z" fill="#F50100"/>
<mask id="mask1_41_28" style="mask-type:luminance" maskUnits="userSpaceOnUse" x="-2" y="-3" width="37" height="28">
<path fill-rule="evenodd" clip-rule="evenodd" d="M19.778 -3H12.222V7H-1.972V15H12.222V25H19.778V15H34.028V7H19.778V-3Z" fill="white"/>
</mask>
<g mask="url(#mask1_41_28)">
<path d="M12.222 -3V-5H10.222V-3H12.222ZM19.778 -3H21.778V-5H19.778V-3ZM12.222 7V9H14.222V7H12.222ZM-1.972 7V5H-3.972V7H-1.972ZM-1.972 15H-3.972V17H-1.972V15ZM12.222 15H14.222V13H12.222V15ZM12.222 25H10.222V27H12.222V25ZM19.778 25V27H21.778V25H19.778ZM19.778 15V13H17.778V15H19.778ZM34.028 15V17H36.028V15H34.028ZM34.028 7H36.028V5H34.028V7ZM19.778 7H17.778V9H19.778V7ZM12.222 -1H19.778V-5H12.222V-1ZM14.222 7V-3H10.222V7H14.222ZM-1.972 9H12.222V5H-1.972V9ZM0.0279999 15V7H-3.972V15H0.0279999ZM12.222 13H-1.972V17H12.222V13ZM14.222 25V15H10.222V25H14.222ZM19.778 23H12.222V27H19.778V23ZM17.778 15V25H21.778V15H17.778ZM34.028 13H19.778V17H34.028V13ZM32.028 7V15H36.028V7H32.028ZM19.778 9H34.028V5H19.778V9ZM17.778 -3V7H21.778V-3H17.778Z" fill="white"/>
</g>
</g>
</g>
<defs>
<clipPath id="clip0_41_28">
<rect width="32" height="23" fill="white"/>
</clipPath>
</defs>
</svg>
