<svg width="32" height="23" viewBox="0 0 32 23" fill="none" xmlns="http://www.w3.org/2000/svg">
<g clip-path="url(#clip0_41_43)">
<rect width="32" height="23" fill="#DEDEDE"/>
<path d="M32 19.4613C32 20.3998 32 22 32 22.9998C31 22.9998 29.3874 22.9998 28.4444 22.9998H3.55555C2.61255 22.9998 1 22.9998 -9.32813e-06 22.9998C0 22 -9.83477e-06 20.3998 -9.83477e-06 19.4613V15.9229H32V19.4613Z" fill="#CE2028"/>
<path d="M0 7.07666H32V15.9228H0V7.07666Z" fill="#22408C"/>
<path d="M28.4444 0.000230312H3.55553C2.61254 0.000230312 0.5 0 -2.33352e-05 0.000230312C-2.33352e-05 1 -2.33352e-05 2.60023 -2.33352e-05 3.53869V7.07715H32V3.53869C32 2.60023 32 0.5 32 0.000230312C31.5 0 29.3874 0.000230312 28.4444 0.000230312Z" fill="#EEEEEE"/>
</g>
<defs>
<clipPath id="clip0_41_43">
<rect width="32" height="23" fill="white"/>
</clipPath>
</defs>
</svg>
