<svg width="32" height="23" viewBox="0 0 32 23" fill="none" xmlns="http://www.w3.org/2000/svg">
<g clip-path="url(#clip0_41_47)">
<rect width="32" height="23" fill="#DEDEDE"/>
<path d="M-0.000221953 7.84091H31.9998V15.1591H-0.000221953V7.84091Z" fill="#E6E7E8"/>
<path d="M27 1.39857e-06H5C0 1.39857e-06 0 1.39857e-06 0 1.39857e-06V7.8V9H32V7.8V4.44894e-07C29 0 32 1.39857e-06 27 1.39857e-06Z" fill="#1B75BB"/>
<path d="M0.000221953 23C3.50022 23 0 23 5 23H27C32 23 28.5002 23 32 23V16.0667V15H0L0.000221953 23Z" fill="#29B473"/>
<path d="M5.72538 6.4354C5.20705 6.43512 4.71005 6.21967 4.34363 5.8364C3.97721 5.45313 3.77138 4.93342 3.77138 4.39154C3.77124 3.84956 3.97702 3.32972 4.34345 2.94634C4.70988 2.56296 5.20696 2.34743 5.72538 2.34715C5.79971 2.3475 5.87288 2.35238 5.94488 2.36179C5.59773 2.14579 5.20135 2.0315 4.79738 2.0309C4.20675 2.0439 3.6445 2.29831 3.23118 2.7396C2.81787 3.18089 2.5864 3.77392 2.5864 4.39154C2.5864 5.00915 2.81787 5.60218 3.23118 6.04347C3.6445 6.48476 4.20675 6.73918 4.79738 6.75217C5.20131 6.75173 5.59768 6.63762 5.94488 6.42181C5.87321 6.43017 5.80004 6.4347 5.72538 6.4354ZM14.3204 2.02881L14.5349 2.48724L15.0199 2.56147L14.6714 2.91849L14.7534 3.4224L14.3204 3.18351L13.8869 3.4224L13.9689 2.91849L13.6199 2.56147L14.1049 2.48724L14.3204 2.02881ZM14.3204 3.69056L14.5349 4.1516L15.0199 4.22897L14.6714 4.58338L14.7534 5.08676L14.3204 4.8484L13.8869 5.08676L13.9689 4.58338L13.6199 4.22897L14.1049 4.1516L14.3204 3.69056ZM14.3204 5.35806L14.5349 5.81806L15.0199 5.89124L14.6714 6.24774L14.7534 6.75165L14.3204 6.51433L13.8869 6.75165L13.9689 6.24774L13.6199 5.89124L14.1049 5.81806L14.3204 5.35806ZM12.5199 2.02881L12.7384 2.48724L13.2219 2.56147L12.8719 2.91849L12.9539 3.4224L12.5199 3.18351L12.0899 3.4224L12.1704 2.91849L11.8214 2.56147L12.3049 2.48724L12.5199 2.02881ZM12.5199 3.69056L12.7384 4.1516L13.2219 4.22897L12.8719 4.58338L12.9539 5.08676L12.5199 4.8484L12.0899 5.08676L12.1704 4.58338L11.8214 4.22897L12.3049 4.1516L12.5199 3.69056ZM12.5199 5.35806L12.7384 5.81806L13.2219 5.89124L12.8719 6.24774L12.9539 6.75165L12.5199 6.51433L12.0899 6.75165L12.1704 6.24774L11.8214 5.89124L12.3049 5.81806L12.5199 5.35806ZM10.7224 2.02881L10.9384 2.48724L11.4234 2.56147L11.0699 2.91849L11.1559 3.4224L10.7224 3.18351L10.2884 3.4224L10.3724 2.91849L10.0199 2.56147L10.5049 2.48724L10.7224 2.02881ZM10.7224 3.69056L10.9384 4.1516L11.4234 4.22897L11.0699 4.58338L11.1559 5.08676L10.7224 4.8484L10.2884 5.08676L10.3724 4.58338L10.0199 4.22897L10.5049 4.1516L10.7224 3.69056ZM10.7224 5.35806L10.9384 5.81806L11.4234 5.89124L11.0699 6.24774L11.1559 6.75165L10.7224 6.51433L10.2884 6.75165L10.3724 6.24774L10.0199 5.89124L10.5049 5.81806L10.7224 5.35806ZM8.92338 3.69056L9.13988 4.1516L9.62388 4.22897L9.27388 4.58338L9.35738 5.08676L8.92338 4.8484L8.48988 5.08676L8.57488 4.58338L8.22188 4.22897L8.70738 4.1516L8.92338 3.69056ZM8.92338 5.35806L9.13988 5.81806L9.62388 5.89124L9.27388 6.24774L9.35738 6.75165L8.92338 6.51433L8.48988 6.75165L8.57488 6.24774L8.22188 5.89124L8.70738 5.81806L8.92338 5.35806ZM7.11488 5.35806L7.33138 5.81806L7.81638 5.89124L7.46588 6.24774L7.54988 6.75165L7.11488 6.51433L6.68138 6.75165L6.76438 6.24774L6.41438 5.89124L6.89838 5.81806L7.11488 5.35806Z" fill="#E6E7E8"/>
<path d="M0 8H32V9.04545H0V8ZM0 14.7955H32V15.8409H0V14.7955Z" fill="#EC1C24"/>
</g>
<defs>
<clipPath id="clip0_41_47">
<rect width="32" height="23" fill="white"/>
</clipPath>
</defs>
</svg>
