<svg id="Calque_1" data-name="Calque 1" xmlns="http://www.w3.org/2000/svg" viewBox="0 0 190.52 91.44"><defs><style>.cls-1{fill:#000100;}</style></defs><path class="cls-1" d="M278,383.65a8.71,8.71,0,1,1-8.71-8.71A8.71,8.71,0,0,1,278,383.65Z" transform="translate(-202.3 -374.94)"/><path class="cls-1" d="M304.09,383.65a8.71,8.71,0,1,1-8.71-8.71A8.71,8.71,0,0,1,304.09,383.65Z" transform="translate(-202.3 -374.94)"/><path class="cls-1" d="M291,409.77a8.71,8.71,0,1,1-8.71-8.71A8.71,8.71,0,0,1,291,409.77Z" transform="translate(-202.3 -374.94)"/><path class="cls-1" d="M317.15,409.77a8.71,8.71,0,1,1-8.71-8.71A8.71,8.71,0,0,1,317.15,409.77Z" transform="translate(-202.3 -374.94)"/><path class="cls-1" d="M330.21,383.65a8.71,8.71,0,1,1-8.71-8.71A8.71,8.71,0,0,1,330.21,383.65Z" transform="translate(-202.3 -374.94)"/><path class="cls-1" d="M202.47,445.19a2.12,2.12,0,0,1-.17-.8,2,2,0,0,1,2.09-2,2.08,2.08,0,0,1,2,1.5l5.35,16L217,444a2.16,2.16,0,0,1,2.06-1.63h.29a2.13,2.13,0,0,1,2.06,1.63l5.25,15.93,5.36-16a2.09,2.09,0,0,1,2-1.46,2,2,0,0,1,2,2,2.3,2.3,0,0,1-.2.83L229,464.47a2.31,2.31,0,0,1-2.14,1.7h-.4a2.22,2.22,0,0,1-2.09-1.7l-5.19-15.19L214,464.47a2.24,2.24,0,0,1-2.13,1.7h-.4a2.3,2.3,0,0,1-2.13-1.7Z" transform="translate(-202.3 -374.94)"/><path class="cls-1" d="M236.63,461.18v-.06c0-3.64,2.84-5.43,7-5.43a14.18,14.18,0,0,1,4.53.7V456c0-2.39-1.47-3.66-4.18-3.66a10.07,10.07,0,0,0-3.73.66,2.28,2.28,0,0,1-.61.1,1.62,1.62,0,0,1-1.63-1.6A1.71,1.71,0,0,1,239,450a14.37,14.37,0,0,1,5.42-1c2.52,0,4.4.67,5.58,1.89a6.94,6.94,0,0,1,1.82,5.19v8.3a1.84,1.84,0,0,1-1.88,1.84,1.74,1.74,0,0,1-1.88-1.62v-.64a6.85,6.85,0,0,1-5.49,2.46C239.44,466.38,236.63,464.56,236.63,461.18ZM248.17,460v-1.15a10.72,10.72,0,0,0-3.82-.67c-2.49,0-4,1.05-4,2.81V461c0,1.62,1.43,2.55,3.29,2.55C246.23,463.57,248.17,462.11,248.17,460Z" transform="translate(-202.3 -374.94)"/><path class="cls-1" d="M323.73,461.18v-.06c0-3.64,2.84-5.43,7-5.43a14.11,14.11,0,0,1,4.52.7V456c0-2.39-1.46-3.66-4.17-3.66a10.17,10.17,0,0,0-3.74.66,2.28,2.28,0,0,1-.6.1,1.61,1.61,0,0,1-1.63-1.6,1.7,1.7,0,0,1,1.05-1.53,14.38,14.38,0,0,1,5.43-1c2.52,0,4.39.67,5.58,1.89A6.94,6.94,0,0,1,339,456v8.3a1.84,1.84,0,0,1-1.89,1.84,1.73,1.73,0,0,1-1.87-1.62v-.64a6.89,6.89,0,0,1-5.5,2.46C326.54,466.38,323.73,464.56,323.73,461.18ZM335.28,460v-1.15a10.78,10.78,0,0,0-3.83-.67c-2.49,0-3.95,1.05-3.95,2.81V461c0,1.62,1.43,2.55,3.28,2.55C333.34,463.57,335.28,462.11,335.28,460Z" transform="translate(-202.3 -374.94)"/><path class="cls-1" d="M256.66,444.27a1.92,1.92,0,0,1,1.92-1.94,2,2,0,0,1,2,1.94v20a1.95,1.95,0,0,1-3.89,0Z" transform="translate(-202.3 -374.94)"/><path class="cls-1" d="M265.36,444.27a1.93,1.93,0,0,1,1.94-1.94,2,2,0,0,1,2,1.94v20a2,2,0,0,1-3.9,0Z" transform="translate(-202.3 -374.94)"/><path class="cls-1" d="M273.61,457.75v-.06a8.71,8.71,0,0,1,17.42-.07v.07a8.63,8.63,0,0,1-8.75,8.69A8.54,8.54,0,0,1,273.61,457.75Zm13.68,0v-.06a5.12,5.12,0,0,0-5-5.38c-3,0-4.93,2.4-4.93,5.31v.07a5.09,5.09,0,0,0,5,5.33A5,5,0,0,0,287.29,457.75Z" transform="translate(-202.3 -374.94)"/><path class="cls-1" d="M295.38,451.06a1.89,1.89,0,0,1,1.9-1.93,1.92,1.92,0,0,1,1.93,1.93v.82a6.06,6.06,0,0,1,5.21-2.91c3.77,0,5.95,2.53,5.95,6.38v8.92a1.87,1.87,0,0,1-1.9,1.9,1.9,1.9,0,0,1-1.93-1.9v-7.74c0-2.6-1.29-4.08-3.57-4.08s-3.76,1.55-3.76,4.14v7.68a1.92,1.92,0,0,1-3.83,0Z" transform="translate(-202.3 -374.94)"/><path class="cls-1" d="M315.27,451.08a1.88,1.88,0,0,1,1.89-1.93,1.92,1.92,0,0,1,1.92,1.93v13.19a1.9,1.9,0,0,1-1.92,1.89,1.88,1.88,0,0,1-1.89-1.89Z" transform="translate(-202.3 -374.94)"/><path class="cls-1" d="M356.34,443.55a1.24,1.24,0,1,1,2.48,0v9.13a7.52,7.52,0,0,1,6.39-3.71c4,0,8,3.16,8,8.65v.06c0,5.45-3.93,8.68-8,8.68a7.53,7.53,0,0,1-6.39-3.55v2.1a1.23,1.23,0,0,1-1.22,1.26,1.26,1.26,0,0,1-1.26-1.26Zm14.29,14.16v-.06c0-3.94-2.71-6.46-5.87-6.46a6.23,6.23,0,0,0-6,6.43v.06a6.21,6.21,0,0,0,6,6.45C368,464.13,370.63,461.75,370.63,457.71Z" transform="translate(-202.3 -374.94)"/><path class="cls-1" d="M385.4,466.38a8.29,8.29,0,0,1-8.32-8.68v-.06c0-4.81,3.39-8.68,8-8.68,4.93,0,7.74,4,7.74,8.45a1.15,1.15,0,0,1-1.16,1.16H379.6a5.82,5.82,0,0,0,5.86,5.65,6.82,6.82,0,0,0,4.81-1.94,1.08,1.08,0,0,1,1.81.77,1.07,1.07,0,0,1-.39.81A8.46,8.46,0,0,1,385.4,466.38Zm4.94-9.64c-.26-3-2-5.69-5.32-5.69-2.91,0-5.1,2.43-5.42,5.69Z" transform="translate(-202.3 -374.94)"/><path class="cls-1" d="M319.29,444.44a2.15,2.15,0,1,1-2.15-2.15A2.15,2.15,0,0,1,319.29,444.44Z" transform="translate(-202.3 -374.94)"/><path class="cls-1" d="M349.78,464.22a2.15,2.15,0,1,1-2.15-2.14A2.16,2.16,0,0,1,349.78,464.22Z" transform="translate(-202.3 -374.94)"/></svg>